<svg width="247" height="104" viewBox="0 0 247 104" fill="none" xmlns="http://www.w3.org/2000/svg">
<g clip-path="url(#clip0_5_50)">
<path d="M115.302 9.19034C114.658 9.46291 114.052 9.4777 113.486 9.2347C112.924 8.98998 112.509 8.55154 112.242 7.91938C111.954 7.23859 111.932 6.61018 112.175 6.03415C112.419 5.45811 112.889 5.02267 113.586 4.72781C113.955 4.57181 114.333 4.47161 114.72 4.42721L115.262 5.43764L115.253 5.44886C115.052 5.31388 114.828 5.24148 114.58 5.23165C114.337 5.22011 114.093 5.26577 113.85 5.36862C113.425 5.54862 113.146 5.82869 113.016 6.20881C112.888 6.58317 112.923 7.00539 113.122 7.47546C113.324 7.95363 113.598 8.29146 113.945 8.48894C114.295 8.68471 114.677 8.69517 115.09 8.52031C115.402 8.38831 115.642 8.22015 115.808 8.01583C115.973 7.80746 116.094 7.55583 116.17 7.26096L116.184 7.26189L116.499 8.41165C116.126 8.75078 115.727 9.01035 115.302 9.19034Z" fill="#000F66"/>
<path d="M121.745 6.47703C121.862 6.70038 121.995 6.90133 122.145 7.07986C122.294 7.25404 122.425 7.37533 122.537 7.44374L122.539 7.45681L121.063 7.66827L121.061 7.6552C121.115 7.59856 121.135 7.50677 121.121 7.37983C121.111 7.24792 121.053 7.07184 120.946 6.8516L120.864 6.70322L119.179 6.94462L119.142 7.10984C119.102 7.35564 119.093 7.54139 119.116 7.66708C119.137 7.78841 119.18 7.87115 119.244 7.91531L119.246 7.92838L117.874 8.12486L117.872 8.1118C118.093 7.84913 118.253 7.46608 118.355 6.96264L118.903 4.1371C118.926 3.92491 118.914 3.76001 118.866 3.64242C118.822 3.52421 118.759 3.43992 118.676 3.38954L118.674 3.37648L120.406 3.12853L120.408 3.1416C120.344 3.22189 120.305 3.32302 120.291 3.44498C120.277 3.56695 120.314 3.72624 120.399 3.92284L121.745 6.47703ZM119.616 4.12845C119.624 4.46509 119.567 4.93771 119.445 5.54632L119.303 6.27347L120.557 6.09383L120.216 5.43591C119.917 4.86541 119.725 4.42834 119.642 4.12471L119.616 4.12845Z" fill="#000F66"/>
<path d="M123.847 7.47955L123.848 7.46644C123.952 7.41219 124.049 7.30614 124.138 7.14829C124.228 6.99045 124.287 6.78698 124.316 6.5379L124.62 3.9487C124.647 3.72146 124.634 3.5139 124.581 3.326C124.532 3.13862 124.465 3.00895 124.38 2.93699L124.382 2.92388L126.283 3.14719C126.978 3.22881 127.507 3.49695 127.87 3.95161C128.238 4.40242 128.38 4.98178 128.297 5.68972C128.211 6.4195 127.946 6.95986 127.502 7.31081C127.058 7.6574 126.438 7.78397 125.643 7.69054L123.847 7.47955ZM125.175 6.97769L125.785 7.0493C126.222 7.10064 126.572 7.00007 126.837 6.7476C127.101 6.49513 127.265 6.10452 127.327 5.57575C127.392 5.02077 127.326 4.59883 127.13 4.30994C126.934 4.01668 126.602 3.84258 126.135 3.78765L125.558 3.71989L125.175 6.97769Z" fill="#000F66"/>
<path d="M129.709 8.41368L129.714 8.40148C129.828 8.37735 129.95 8.3014 130.079 8.17364C130.208 8.04589 130.32 7.86607 130.415 7.6342L131.409 5.2239C131.496 5.01237 131.539 4.80895 131.539 4.61366C131.543 4.42005 131.514 4.27716 131.452 4.18499L131.457 4.17279L133.226 4.90216C133.873 5.16876 134.31 5.57002 134.536 6.10596C134.768 6.6395 134.749 7.23578 134.477 7.8948C134.197 8.57415 133.796 9.02263 133.273 9.24024C132.752 9.45378 132.121 9.40797 131.381 9.10281L129.709 8.41368ZM131.123 8.28996L131.691 8.52386C132.097 8.69153 132.462 8.68963 132.785 8.51814C133.108 8.34665 133.371 8.0148 133.574 7.52257C133.787 7.00593 133.838 6.58198 133.727 6.25071C133.618 5.91537 133.345 5.658 132.91 5.47859L132.373 5.25727L131.123 8.28996Z" fill="#000F66"/>
<path d="M99.2753 38.3988L99.2842 38.3866C99.6334 38.4801 99.9867 38.4493 100.344 38.294L102.759 37.2369C102.954 37.151 103.13 37.034 103.288 36.8859C103.445 36.7379 103.529 36.5819 103.541 36.418L103.556 36.4177L104.272 37.7953C104.12 37.7674 103.955 37.8943 103.775 38.1761L103.062 39.3034C102.821 39.6832 102.555 39.9795 102.263 40.1924L102.276 40.2164C102.556 40.1473 102.964 40.1237 103.5 40.1455L104.847 40.194C105.169 40.2051 105.361 40.1434 105.423 40.009L106.146 41.3986L106.137 41.4109C106.004 41.322 105.826 41.2975 105.602 41.3375C105.382 41.3753 105.183 41.4482 105.005 41.5561L102.768 42.9561C102.408 43.1842 102.178 43.4536 102.08 43.7645L102.065 43.7647L101.349 42.3872L101.358 42.3749C101.447 42.4099 101.569 42.413 101.722 42.3843C101.875 42.3556 102.037 42.2894 102.207 42.1856L103.402 41.4419C103.682 41.2657 104.033 41.0984 104.455 40.9401L104.443 40.916C104.052 40.9869 103.631 41.0097 103.179 40.9845L101.701 40.9048C101.333 40.8823 101.041 40.9142 100.827 41.0005L100.802 40.9523C100.995 40.8158 101.184 40.5905 101.367 40.2763L102.138 38.9662C102.345 38.6192 102.608 38.2987 102.929 38.0045L102.917 37.9805C102.573 38.2103 102.234 38.4016 101.901 38.5545L100.621 39.1357C100.248 39.3094 100.034 39.5048 99.9785 39.722L99.9633 39.7223L99.2753 38.3988Z" fill="#000F66"/>
<path d="M107 47.5582C106.884 47.7896 106.797 48.0216 106.739 48.2539C106.684 48.4832 106.662 48.665 106.672 48.7995L106.663 48.8089L105.597 47.7078L105.607 47.6983C105.687 47.7092 105.775 47.6707 105.872 47.5828C105.976 47.495 106.087 47.3402 106.206 47.1184L106.281 46.9614L105.064 45.7044L104.905 45.7737C104.676 45.8882 104.516 45.9927 104.425 46.0871C104.337 46.1783 104.294 46.2639 104.296 46.3439L104.286 46.3533L103.296 45.3302L103.306 45.3207C103.657 45.3457 104.073 45.2486 104.553 45.0295L107.234 43.7837C107.425 43.6749 107.554 43.5652 107.623 43.4544C107.695 43.3469 107.727 43.2436 107.719 43.1444L107.729 43.1349L108.979 44.4261L108.969 44.4355C108.863 44.4306 108.756 44.4592 108.646 44.5213C108.536 44.5834 108.426 44.7095 108.314 44.8994L107 47.5582ZM107.67 44.371C107.395 44.5807 106.968 44.8182 106.388 45.0836L105.697 45.4031L106.602 46.3386L106.944 45.6585C107.239 45.0656 107.487 44.6429 107.689 44.3905L107.67 44.371Z" fill="#000F66"/>
<path d="M108.333 50.1044L108.34 50.0927C108.46 50.0853 108.595 50.0263 108.745 49.9157C108.895 49.8051 109.036 49.6391 109.167 49.4177L110.554 47.0872C110.656 46.9163 110.726 46.737 110.764 46.5493C110.805 46.3577 110.795 46.1969 110.736 46.0669L110.743 46.0552L112.065 46.8423C112.001 46.9775 111.969 47.2113 111.971 47.5438L111.971 49.4531C111.97 49.826 111.92 50.3168 111.82 50.9257L111.844 50.9396C111.992 50.5491 112.199 50.1306 112.465 49.6839L113.089 48.6352C113.223 48.4099 113.305 48.2061 113.334 48.0238C113.368 47.8439 113.358 47.7013 113.305 47.5961L113.312 47.5844L114.658 48.3854L114.651 48.3971C114.533 48.4006 114.398 48.4596 114.246 48.5741C114.096 48.6847 113.955 48.8507 113.823 49.0721L112.453 51.3734C112.322 51.5948 112.242 51.7998 112.214 51.9882C112.188 52.1728 112.202 52.3177 112.255 52.423L112.248 52.4346L111.019 51.7029C111.048 51.4943 111.061 51.252 111.057 50.9761L111.029 49.153C111.02 48.6212 111.081 48.0582 111.214 47.464L111.191 47.4501C111.013 47.9073 110.78 48.3787 110.491 48.8642L109.902 49.8546C109.767 50.0799 109.684 50.2825 109.65 50.4625C109.621 50.6448 109.632 50.7885 109.685 50.8937L109.679 50.9054L108.333 50.1044Z" fill="#000F66"/>
<path d="M116.868 54.1283C116.176 53.9352 115.68 53.5598 115.381 53.0023C115.085 52.4459 115.032 51.8282 115.222 51.149C115.426 50.4176 115.81 49.8983 116.375 49.5912C116.939 49.2841 117.596 49.235 118.344 49.4439C118.741 49.5545 119.108 49.7158 119.448 49.9279L119.237 51.0868L119.223 51.0897C119.148 50.853 119.014 50.6514 118.821 50.485C118.633 50.3198 118.408 50.2007 118.146 50.1278C117.689 50.0003 117.287 50.0475 116.939 50.2694C116.596 50.4882 116.354 50.8502 116.213 51.3552C116.07 51.8689 116.074 52.3159 116.226 52.6962C116.383 53.0777 116.683 53.3304 117.127 53.4543C117.462 53.5478 117.762 53.5658 118.027 53.5083C118.293 53.4465 118.551 53.3213 118.8 53.1329L118.812 53.143L118.329 54.2683C117.812 54.3025 117.326 54.2559 116.868 54.1283Z" fill="#000F66"/>
<path d="M125.272 50.1799C125.171 50.246 125.083 50.3644 125.008 50.535C124.933 50.7055 124.894 50.9196 124.889 51.1772L124.845 53.8821C124.841 54.1307 124.874 54.3414 124.944 54.5143C125.013 54.6827 125.097 54.7993 125.196 54.8642L125.195 54.8778L123.555 54.8512L123.555 54.8376C123.647 54.7713 123.728 54.6551 123.798 54.4889C123.873 54.3184 123.913 54.1111 123.917 53.867L123.936 52.6807L122.133 52.6514L122.114 53.8106C122.11 54.0682 122.14 54.2835 122.205 54.4563C122.27 54.6291 122.35 54.7502 122.443 54.8196L122.443 54.8331L120.803 54.8065L120.803 54.7929C120.903 54.7267 120.991 54.6084 121.066 54.4378C121.141 54.2673 121.181 54.0532 121.185 53.7956L121.229 51.1178C121.233 50.8557 121.2 50.6404 121.131 50.472C121.061 50.2991 120.977 50.178 120.879 50.1086L120.879 50.095L122.52 50.1216L122.519 50.1352C122.428 50.2015 122.345 50.3222 122.269 50.4973C122.199 50.6679 122.162 50.8798 122.157 51.1329L122.144 51.9735L123.947 52.0028L123.961 51.1622C123.965 50.9046 123.934 50.6893 123.869 50.5165C123.804 50.3437 123.725 50.2226 123.631 50.1532L123.631 50.1397L125.272 50.1663L125.272 50.1799Z" fill="#000F66"/>
<path d="M130.805 52.4371L130.819 52.4405L130.955 53.7962C130.731 53.8136 130.459 53.8615 130.139 53.9397L127.814 54.5074L127.81 54.4942C127.891 54.4047 127.946 54.268 127.975 54.084C128.005 53.9 127.989 53.6828 127.928 53.4325L127.293 50.8309C127.231 50.5762 127.145 50.3762 127.035 50.2309C126.924 50.0812 126.812 49.9852 126.699 49.9429L126.696 49.9297L129.061 49.3524C129.372 49.2763 129.601 49.2019 129.746 49.1293L130.146 50.2809L130.134 50.2907C129.897 50.0044 129.512 49.9261 128.981 50.0558L128.112 50.2681L128.395 51.4273L128.895 51.3051C129.352 51.1936 129.691 51.0946 129.911 51.0081L129.991 52.1613L129.977 52.1645C129.805 51.9136 129.531 51.8337 129.158 51.9248L128.552 52.0728L128.914 53.5547L129.632 53.3795C130.225 53.2347 130.616 52.9206 130.805 52.4371Z" fill="#000F66"/>
<path d="M134.65 52.308C134.116 52.5832 133.667 52.705 133.303 52.6735L132.694 51.7043L132.703 51.6922C133.256 51.9629 133.78 51.9676 134.276 51.7064C134.74 51.4613 134.885 51.1626 134.71 50.8103C134.66 50.7091 134.595 50.63 134.516 50.5732C134.442 50.5143 134.346 50.4786 134.229 50.4661C134.114 50.4475 134.014 50.4391 133.929 50.4409C133.842 50.4386 133.717 50.4422 133.556 50.4518C133.386 50.4654 133.253 50.4731 133.158 50.4748C133.067 50.4745 132.944 50.465 132.789 50.4463C132.633 50.4276 132.505 50.3928 132.404 50.342C132.301 50.287 132.193 50.2069 132.08 50.1014C131.965 49.9918 131.868 49.8561 131.787 49.6941C131.629 49.3742 131.624 49.0387 131.772 48.6874C131.923 48.3301 132.223 48.04 132.673 47.8171C132.981 47.6644 133.319 47.5493 133.69 47.4717L134.263 48.4286L134.251 48.4347C133.871 48.2091 133.469 48.2017 133.044 48.4126C132.578 48.6435 132.423 48.9149 132.577 49.2267C132.619 49.3117 132.673 49.3786 132.737 49.4273C132.806 49.474 132.895 49.5057 133.004 49.5222C133.115 49.5327 133.209 49.539 133.286 49.5413C133.365 49.5375 133.482 49.5298 133.638 49.5182C133.785 49.5106 133.898 49.5049 133.977 49.5011C134.056 49.4973 134.166 49.5007 134.308 49.5112C134.451 49.5157 134.569 49.5353 134.662 49.57C134.755 49.6047 134.857 49.6525 134.968 49.7135C135.081 49.7684 135.182 49.8496 135.27 49.957C135.363 50.0625 135.446 50.188 135.518 50.3338C135.693 50.6861 135.709 51.044 135.566 51.4074C135.427 51.7687 135.122 52.0689 134.65 52.308Z" fill="#000F66"/>
<path d="M137.612 44.487L138.475 45.3863L138.468 45.4C138.315 45.3375 138.146 45.3183 137.963 45.3425C137.784 45.3639 137.618 45.4351 137.466 45.5561L137.068 45.8726L138.904 48.1808C139.076 48.3965 139.25 48.553 139.425 48.6502C139.601 48.7411 139.755 48.7747 139.886 48.7511L139.895 48.7617L138.521 49.8548L138.512 49.8442C138.558 49.7271 138.555 49.5708 138.503 49.3751C138.452 49.1731 138.343 48.9677 138.177 48.759L136.341 46.4508L135.938 46.7716C135.786 46.8926 135.678 47.0395 135.613 47.2123C135.552 47.3822 135.534 47.5491 135.561 47.713L135.546 47.7161L134.864 46.6733C135.102 46.53 135.356 46.3514 135.624 46.1375L136.919 45.1077C137.188 44.8939 137.419 44.687 137.612 44.487Z" fill="#000F66"/>
<path d="M143.361 43.0439L143.375 43.0375L144.311 44.0274C144.145 44.178 143.958 44.3822 143.753 44.6401L142.26 46.5108L142.249 46.5024C142.258 46.3824 142.218 46.2405 142.129 46.0769C142.04 45.9132 141.895 45.751 141.693 45.5903L139.6 43.9199C139.395 43.7564 139.205 43.6507 139.029 43.6029C138.85 43.5523 138.702 43.5447 138.587 43.5802L138.577 43.5717L140.095 41.6692C140.295 41.4184 140.43 41.2198 140.501 41.0736L141.521 41.7405L141.518 41.7554C141.155 41.6739 140.803 41.8469 140.462 42.2744L139.904 42.974L140.837 43.7183L141.158 43.3155C141.451 42.9481 141.659 42.6626 141.781 42.4592L142.548 43.3233L142.54 43.3339C142.25 43.2411 141.985 43.3448 141.745 43.6451L141.356 44.1327L142.548 45.0842L143.009 44.5066C143.39 44.0296 143.507 43.5421 143.361 43.0439Z" fill="#000F66"/>
<path d="M146.27 38.3554C146.762 38.2957 147.126 38.1414 147.362 37.8924L147.374 37.8981L147.013 39.2636C146.744 39.2324 146.468 39.2307 146.185 39.2585L144.113 39.4506L144.25 39.1557C144.507 38.6069 144.381 38.2139 143.873 37.9768C143.648 37.8716 143.436 37.8601 143.238 37.9422C143.04 38.0244 142.882 38.1975 142.764 38.4615L142.569 38.8944L145.333 40.1852C145.555 40.2885 145.757 40.3458 145.942 40.357C146.122 40.3663 146.262 40.3444 146.362 40.2912L146.374 40.2969L145.683 41.7774L145.67 41.7717C145.655 41.6548 145.585 41.5273 145.46 41.3891C145.331 41.249 145.149 41.1244 144.916 41.0154L142.465 39.8708C142.239 39.7657 142.036 39.7105 141.854 39.7052C141.667 39.6981 141.525 39.7262 141.425 39.7895L141.413 39.7838L142.228 38.0391C142.455 37.5517 142.75 37.2253 143.111 37.0599C143.469 36.8926 143.848 36.9027 144.25 37.0901C144.88 37.3846 145.156 37.8524 145.076 38.4936L146.27 38.3554Z" fill="#000F66"/>
<path d="M123.33 57.43C138.849 57.43 151.43 44.8492 151.43 29.33C151.43 13.8108 138.849 1.22998 123.33 1.22998C107.811 1.22998 95.23 13.8108 95.23 29.33C95.23 44.8492 107.811 57.43 123.33 57.43Z" stroke="#000F66" stroke-width="0.7" stroke-miterlimit="10"/>
<path d="M123.33 58.4799C139.429 58.4799 152.48 45.429 152.48 29.3299C152.48 13.2308 139.429 0.179932 123.33 0.179932C107.231 0.179932 94.18 13.2308 94.18 29.3299C94.18 45.429 107.231 58.4799 123.33 58.4799Z" stroke="#000F66" stroke-width="0.35" stroke-miterlimit="10"/>
<mask id="mask0_5_50" style="mask-type:luminance" maskUnits="userSpaceOnUse" x="95" y="1" width="57" height="57">
<path d="M123.33 1.22998C107.81 1.22998 95.23 13.81 95.23 29.33C95.23 44.85 107.81 57.43 123.33 57.43C138.85 57.43 151.43 44.85 151.43 29.33C151.43 13.81 138.84 1.22998 123.33 1.22998ZM123.33 48.64C112.66 48.64 104.01 39.99 104.01 29.32C104.01 18.65 112.66 10.01 123.33 10.01C134 10.01 142.65 18.66 142.65 29.33C142.65 40 134 48.65 123.33 48.65V48.64Z" fill="white"/>
</mask>
<g mask="url(#mask0_5_50)">
<path d="M142.89 14.6701C142.76 20.4801 137.99 24.7101 132.65 23.9301C130.91 23.6701 130.41 22.7501 130.31 21.2501C130.02 16.6001 133.86 12.3101 138.65 11.9601C139.14 11.9201 139.64 11.9201 140.14 11.9201C142.73 11.9001 142.95 12.1201 142.9 14.6701H142.89Z" fill="#79B0DF"/>
<path d="M103.76 14.6701C103.89 20.4801 108.66 24.7101 114 23.9301C115.74 23.6701 116.24 22.7501 116.34 21.2501C116.63 16.6001 112.79 12.3101 108 11.9601C107.51 11.9201 107.01 11.9201 106.51 11.9201C103.92 11.9001 103.7 12.1201 103.75 14.6701H103.76Z" fill="#79B0DF"/>
<path d="M135.04 30.8601C132.61 30.8201 130.47 30.0101 128.59 28.4601C127.92 27.9101 127.71 27.3601 128 26.4701C129.31 22.4501 131.81 19.6201 135.98 18.5801C139.29 17.7601 142.52 18.3701 145.68 19.5301C148.09 20.4201 148.11 20.4101 146.86 22.6201C145.12 25.7101 143.03 28.4601 139.65 29.9401C138.18 30.5801 136.65 30.9101 135.05 30.8401L135.04 30.8601Z" fill="#000F66"/>
<path d="M111.62 30.8601C114.05 30.8201 116.19 30.0101 118.07 28.4601C118.74 27.9101 118.95 27.3601 118.66 26.4701C117.35 22.4501 114.85 19.6201 110.68 18.5801C107.37 17.7601 104.14 18.3701 100.98 19.5301C98.57 20.4201 98.55 20.4101 99.8 22.6201C101.54 25.7101 103.63 28.4601 107.01 29.9401C108.48 30.5801 110.01 30.9101 111.61 30.8401L111.62 30.8601Z" fill="#000F66"/>
</g>
<mask id="mask1_5_50" style="mask-type:luminance" maskUnits="userSpaceOnUse" x="104" y="10" width="39" height="39">
<path d="M123.33 48.65C134 48.65 142.65 40.0002 142.65 29.33C142.65 18.6599 134 10.01 123.33 10.01C112.66 10.01 104.01 18.6599 104.01 29.33C104.01 40.0002 112.66 48.65 123.33 48.65Z" fill="white"/>
</mask>
<g mask="url(#mask1_5_50)">
<path d="M127.89 20.64C127.91 23.38 126.22 25.98 123.74 27.07C123.36 27.24 123.08 27.14 122.75 26.98C119.28 25.31 117.79 20.83 119.46 17.01C120.22 15.27 121.37 13.78 122.72 12.45C122.99 12.18 123.25 11.85 123.69 12.27C126.09 14.56 127.9 17.16 127.91 20.65L127.89 20.64Z" fill="#000F66"/>
<path d="M127.89 20.64C127.91 23.38 126.22 25.98 123.74 27.07C123.36 27.24 123.08 27.14 122.75 26.98C119.28 25.31 117.79 20.83 119.46 17.01C120.22 15.27 121.37 13.78 122.72 12.45C122.99 12.18 123.25 11.85 123.69 12.27C126.09 14.56 127.9 17.16 127.91 20.65L127.89 20.64Z" fill="#000F66"/>
<path d="M131.98 35.36C130.18 35.33 128.6 34.73 127.21 33.59C126.72 33.18 126.56 32.78 126.78 32.12C127.75 29.15 129.59 27.06 132.68 26.29C135.13 25.68 137.52 26.13 139.85 27C141.63 27.66 141.64 27.65 140.72 29.29C139.43 31.57 137.89 33.61 135.39 34.7C134.3 35.18 133.17 35.42 131.99 35.37L131.98 35.36Z" fill="#000F66"/>
<path d="M134.86 21.0499C134.8 23.9499 132.41 26.0699 129.74 25.6699C128.87 25.5399 128.62 25.0799 128.57 24.3299C128.43 22.0099 130.34 19.8699 132.74 19.6899C132.99 19.6699 133.23 19.6699 133.48 19.6699C134.78 19.6699 134.89 19.7699 134.86 21.0399V21.0499Z" fill="#79B0DF"/>
<path d="M114.67 35.36C116.47 35.33 118.05 34.73 119.44 33.59C119.93 33.18 120.09 32.78 119.87 32.12C118.9 29.15 117.06 27.06 113.97 26.29C111.52 25.68 109.13 26.13 106.8 27C105.02 27.66 105.01 27.65 105.93 29.29C107.22 31.57 108.76 33.61 111.26 34.7C112.35 35.18 113.48 35.42 114.66 35.37L114.67 35.36Z" fill="#000F66"/>
<path d="M111.8 21.0499C111.86 23.9499 114.25 26.0699 116.92 25.6699C117.79 25.5399 118.04 25.0799 118.09 24.3299C118.23 22.0099 116.32 19.8699 113.92 19.6899C113.67 19.6699 113.43 19.6699 113.18 19.6699C111.88 19.6699 111.77 19.7699 111.8 21.0399V21.0499Z" fill="#79B0DF"/>
<path d="M124.34 27.3401C124.16 27.4401 123.97 27.5401 123.78 27.6201C123.37 27.8001 123.07 27.7001 122.71 27.5201C122.59 27.4601 122.47 27.4001 122.36 27.3401H122.33C122.07 34.1801 117.81 35.4001 117.81 35.4001C117.81 35.4001 120.58 43.9001 123.34 49.5401C126.11 43.9001 128.87 35.4001 128.87 35.4001C128.87 35.4001 124.61 34.1801 124.35 27.3401H124.34Z" fill="#000F66"/>
<path d="M123.33 49.7702V38.6802" stroke="white" stroke-width="0.4" stroke-miterlimit="10"/>
<path d="M125.07 37.27C125.07 36.31 124.29 35.53 123.33 35.53C122.37 35.53 121.59 36.31 121.59 37.27C121.59 38.23 122.37 39.01 123.33 39.01C124.29 39.01 125.07 38.23 125.07 37.27Z" fill="white"/>
</g>
<path d="M123.33 48.65C134 48.65 142.65 40.0002 142.65 29.33C142.65 18.6599 134 10.01 123.33 10.01C112.66 10.01 104.01 18.6599 104.01 29.33C104.01 40.0002 112.66 48.65 123.33 48.65Z" stroke="#000F66" stroke-width="0.7" stroke-miterlimit="10"/>
<path d="M147.16 28.87L147.58 30.15C147.6 30.2 147.65 30.24 147.7 30.24H149.05C149.17 30.24 149.23 30.4 149.13 30.47L148.04 31.26C148.04 31.26 147.98 31.35 147.99 31.4L148.41 32.68C148.45 32.8 148.31 32.9 148.21 32.82L147.12 32.03C147.12 32.03 147.01 32 146.97 32.03L145.88 32.82C145.78 32.89 145.64 32.79 145.68 32.68L146.1 31.4C146.12 31.35 146.1 31.29 146.05 31.26L144.96 30.47C144.86 30.4 144.91 30.24 145.04 30.24H146.39C146.45 30.24 146.49 30.2 146.51 30.15L146.93 28.87C146.97 28.75 147.14 28.75 147.17 28.87H147.16Z" fill="#000F66"/>
<path d="M99.73 28.87L100.15 30.15C100.17 30.2 100.22 30.24 100.27 30.24H101.62C101.74 30.24 101.8 30.4 101.7 30.47L100.61 31.26C100.61 31.26 100.55 31.35 100.56 31.4L100.98 32.68C101.02 32.8 100.88 32.9 100.78 32.82L99.69 32.03C99.69 32.03 99.58 32 99.54 32.03L98.45 32.82C98.35 32.89 98.21 32.79 98.25 32.68L98.67 31.4C98.69 31.35 98.67 31.29 98.62 31.26L97.53 30.47C97.43 30.4 97.48 30.24 97.61 30.24H98.96C99.02 30.24 99.06 30.2 99.08 30.15L99.5 28.87C99.54 28.75 99.71 28.75 99.74 28.87H99.73Z" fill="#000F66"/>
</g>
<path d="M17.1364 74.6562H13.4034C13.3352 74.1733 13.196 73.7443 12.9858 73.3693C12.7756 72.9886 12.5057 72.6648 12.1761 72.3977C11.8466 72.1307 11.4659 71.9261 11.0341 71.7841C10.608 71.642 10.1449 71.571 9.64489 71.571C8.74148 71.571 7.95455 71.7955 7.28409 72.2443C6.61364 72.6875 6.09375 73.3352 5.72443 74.1875C5.35511 75.0341 5.17045 76.0625 5.17045 77.2727C5.17045 78.517 5.35511 79.5625 5.72443 80.4091C6.09943 81.2557 6.62216 81.8949 7.29261 82.3267C7.96307 82.7585 8.73864 82.9744 9.61932 82.9744C10.1136 82.9744 10.571 82.9091 10.9915 82.7784C11.4176 82.6477 11.7955 82.4574 12.125 82.2074C12.4545 81.9517 12.7273 81.642 12.9432 81.2784C13.1648 80.9148 13.3182 80.5 13.4034 80.0341L17.1364 80.0511C17.0398 80.8523 16.7983 81.625 16.4119 82.3693C16.0313 83.108 15.517 83.7699 14.8693 84.3551C14.2273 84.9347 13.4602 85.3949 12.5682 85.7358C11.6818 86.071 10.679 86.2386 9.55966 86.2386C8.00284 86.2386 6.6108 85.8864 5.38352 85.1818C4.16193 84.4773 3.19602 83.4574 2.4858 82.1222C1.78125 80.7869 1.42898 79.1705 1.42898 77.2727C1.42898 75.3693 1.78693 73.75 2.50284 72.4148C3.21875 71.0795 4.19034 70.0625 5.41761 69.3636C6.64489 68.6591 8.02557 68.3068 9.55966 68.3068C10.571 68.3068 11.5085 68.4489 12.3722 68.733C13.2415 69.017 14.0114 69.4318 14.6818 69.9773C15.3523 70.517 15.8977 71.179 16.3182 71.9631C16.7443 72.7472 17.017 73.6449 17.1364 74.6562ZM22.4631 86H18.5085L24.5341 68.5455H29.2898L35.3068 86H31.3523L26.9801 72.5341H26.8438L22.4631 86ZM22.2159 79.1392H31.5568V82.0199H22.2159V79.1392ZM43.5952 86H37.4077V68.5455H43.6463C45.402 68.5455 46.9134 68.8949 48.1804 69.5938C49.4474 70.2869 50.4219 71.2841 51.1037 72.5852C51.7912 73.8864 52.1349 75.4432 52.1349 77.2557C52.1349 79.0739 51.7912 80.6364 51.1037 81.9432C50.4219 83.25 49.4418 84.2528 48.1634 84.9517C46.8906 85.6506 45.3679 86 43.5952 86ZM41.098 82.8381H43.4418C44.5327 82.8381 45.4503 82.6449 46.1946 82.2585C46.9446 81.8665 47.5071 81.2614 47.8821 80.4432C48.2628 79.6193 48.4531 78.5568 48.4531 77.2557C48.4531 75.9659 48.2628 74.9119 47.8821 74.0938C47.5071 73.2756 46.9474 72.6733 46.2031 72.2869C45.4588 71.9006 44.5412 71.7074 43.4503 71.7074H41.098V82.8381ZM61.0561 86H54.8686V68.5455H61.1072C62.8629 68.5455 64.3743 68.8949 65.6413 69.5938C66.9084 70.2869 67.8828 71.2841 68.5646 72.5852C69.2521 73.8864 69.5959 75.4432 69.5959 77.2557C69.5959 79.0739 69.2521 80.6364 68.5646 81.9432C67.8828 83.25 66.9027 84.2528 65.6243 84.9517C64.3516 85.6506 62.8288 86 61.0561 86ZM58.5589 82.8381H60.9027C61.9936 82.8381 62.9112 82.6449 63.6555 82.2585C64.4055 81.8665 64.968 81.2614 65.343 80.4432C65.7237 79.6193 65.9141 78.5568 65.9141 77.2557C65.9141 75.9659 65.7237 74.9119 65.343 74.0938C64.968 73.2756 64.4084 72.6733 63.6641 72.2869C62.9197 71.9006 62.0021 71.7074 60.9112 71.7074H58.5589V82.8381ZM77.8842 68.5455H82.4354L87.2422 80.2727H87.4467L92.2536 68.5455H96.8047V86H93.2251V74.6392H93.0803L88.5632 85.9148H86.1257L81.6087 74.5966H81.4638V86H77.8842V68.5455ZM102.854 86H98.8991L104.925 68.5455H109.68L115.697 86H111.743L107.371 72.5341H107.234L102.854 86ZM102.607 79.1392H111.947V82.0199H102.607V79.1392ZM132.398 68.5455V86H129.21L121.616 75.0142H121.489V86H117.798V68.5455H121.037L128.571 79.5227H128.724V68.5455H132.398ZM150.847 74.6562H147.114C147.046 74.1733 146.907 73.7443 146.697 73.3693C146.487 72.9886 146.217 72.6648 145.887 72.3977C145.558 72.1307 145.177 71.9261 144.745 71.7841C144.319 71.642 143.856 71.571 143.356 71.571C142.452 71.571 141.665 71.7955 140.995 72.2443C140.325 72.6875 139.805 73.3352 139.435 74.1875C139.066 75.0341 138.881 76.0625 138.881 77.2727C138.881 78.517 139.066 79.5625 139.435 80.4091C139.81 81.2557 140.333 81.8949 141.004 82.3267C141.674 82.7585 142.45 82.9744 143.33 82.9744C143.825 82.9744 144.282 82.9091 144.702 82.7784C145.129 82.6477 145.506 82.4574 145.836 82.2074C146.165 81.9517 146.438 81.642 146.654 81.2784C146.876 80.9148 147.029 80.5 147.114 80.0341L150.847 80.0511C150.751 80.8523 150.509 81.625 150.123 82.3693C149.742 83.108 149.228 83.7699 148.58 84.3551C147.938 84.9347 147.171 85.3949 146.279 85.7358C145.393 86.071 144.39 86.2386 143.271 86.2386C141.714 86.2386 140.322 85.8864 139.094 85.1818C137.873 84.4773 136.907 83.4574 136.197 82.1222C135.492 80.7869 135.14 79.1705 135.14 77.2727C135.14 75.3693 135.498 73.75 136.214 72.4148C136.93 71.0795 137.901 70.0625 139.129 69.3636C140.356 68.6591 141.737 68.3068 143.271 68.3068C144.282 68.3068 145.219 68.4489 146.083 68.733C146.952 69.017 147.722 69.4318 148.393 69.9773C149.063 70.517 149.609 71.179 150.029 71.9631C150.455 72.7472 150.728 73.6449 150.847 74.6562ZM153.494 86V68.5455H157.184V75.7472H164.675V68.5455H168.357V86H164.675V78.7898H157.184V86H153.494ZM171.4 86V68.5455H183.161V71.5881H175.09V75.7472H182.556V78.7898H175.09V82.9574H183.195V86H171.4ZM195.564 73.5653C195.496 72.8778 195.203 72.3437 194.686 71.9631C194.169 71.5824 193.467 71.392 192.581 71.392C191.979 71.392 191.47 71.4773 191.055 71.6477C190.641 71.8125 190.322 72.0426 190.101 72.3381C189.885 72.6335 189.777 72.9688 189.777 73.3438C189.766 73.6562 189.831 73.929 189.973 74.1619C190.121 74.3949 190.322 74.5966 190.578 74.767C190.834 74.9318 191.129 75.0767 191.464 75.2017C191.8 75.321 192.158 75.4233 192.538 75.5085L194.107 75.8835C194.868 76.054 195.567 76.2812 196.203 76.5653C196.839 76.8494 197.391 77.1989 197.857 77.6136C198.322 78.0284 198.683 78.517 198.939 79.0795C199.2 79.642 199.334 80.2869 199.339 81.0142C199.334 82.0824 199.061 83.0085 198.521 83.7926C197.987 84.571 197.214 85.1761 196.203 85.608C195.197 86.0341 193.984 86.2472 192.564 86.2472C191.155 86.2472 189.928 86.0312 188.882 85.5994C187.842 85.1676 187.03 84.5284 186.445 83.6818C185.865 82.8295 185.561 81.7756 185.533 80.5199H189.104C189.143 81.1051 189.311 81.5937 189.607 81.9858C189.908 82.3722 190.308 82.6648 190.808 82.8636C191.314 83.0568 191.885 83.1534 192.521 83.1534C193.146 83.1534 193.689 83.0625 194.149 82.8807C194.615 82.6989 194.976 82.446 195.232 82.1222C195.487 81.7983 195.615 81.4261 195.615 81.0057C195.615 80.6136 195.499 80.2841 195.266 80.017C195.038 79.75 194.703 79.5227 194.26 79.3352C193.822 79.1477 193.286 78.9773 192.649 78.8239L190.749 78.3466C189.277 77.9886 188.115 77.429 187.263 76.6676C186.411 75.9062 185.987 74.8807 185.993 73.5909C185.987 72.5341 186.268 71.6108 186.837 70.821C187.411 70.0312 188.197 69.4148 189.197 68.9716C190.197 68.5284 191.334 68.3068 192.607 68.3068C193.902 68.3068 195.033 68.5284 195.999 68.9716C196.97 69.4148 197.726 70.0312 198.266 70.821C198.805 71.6108 199.084 72.5256 199.101 73.5653H195.564ZM201.157 71.5881V68.5455H215.492V71.5881H210.148V86H206.501V71.5881H201.157ZM217.853 86V68.5455H229.614V71.5881H221.543V75.7472H229.009V78.7898H221.543V82.9574H229.648V86H217.853ZM232.548 86V68.5455H239.435C240.753 68.5455 241.878 68.7812 242.81 69.2528C243.747 69.7187 244.46 70.3807 244.949 71.2386C245.443 72.0909 245.69 73.0937 245.69 74.2472C245.69 75.4062 245.44 76.4034 244.94 77.2386C244.44 78.0682 243.716 78.7045 242.767 79.1477C241.824 79.5909 240.682 79.8125 239.341 79.8125H234.73V76.8466H238.744C239.449 76.8466 240.034 76.75 240.5 76.5568C240.966 76.3636 241.313 76.0739 241.54 75.6875C241.773 75.3011 241.889 74.821 241.889 74.2472C241.889 73.6676 241.773 73.179 241.54 72.7812C241.313 72.3835 240.963 72.0824 240.491 71.8778C240.026 71.6676 239.438 71.5625 238.727 71.5625H236.239V86H232.548ZM241.974 78.0568L246.312 86H242.239L237.994 78.0568H241.974Z" fill="#000F66"/>
<path d="M21.438 101H20.6724L23.5825 93H24.3638L27.2739 101H26.5083L24.0005 93.9492H23.9458L21.438 101ZM21.9888 97.9336H25.9575V98.5898H21.9888V97.9336ZM29.1958 97.25V101H28.5005V95H29.1763V95.9414H29.2388C29.3794 95.6341 29.5981 95.388 29.895 95.2031C30.1945 95.0156 30.5643 94.9219 31.0044 94.9219C31.408 94.9219 31.7622 95.0065 32.0669 95.1758C32.3742 95.3424 32.6125 95.5885 32.7817 95.9141C32.9536 96.2396 33.0396 96.6393 33.0396 97.1133V101H32.3442V97.1562C32.3442 96.6641 32.2062 96.2747 31.9302 95.9883C31.6567 95.7018 31.2896 95.5586 30.8286 95.5586C30.5135 95.5586 30.2336 95.6263 29.9888 95.7617C29.744 95.8971 29.55 96.0924 29.4067 96.3477C29.2661 96.6003 29.1958 96.901 29.1958 97.25ZM38.8394 93V101H38.1089V93H38.8394ZM41.5171 97.25V101H40.8218V95H41.4976V95.9414H41.5601C41.7007 95.6341 41.9194 95.388 42.2163 95.2031C42.5158 95.0156 42.8856 94.9219 43.3257 94.9219C43.7293 94.9219 44.0835 95.0065 44.3882 95.1758C44.6955 95.3424 44.9338 95.5885 45.103 95.9141C45.2749 96.2396 45.3608 96.6393 45.3608 97.1133V101H44.6655V97.1562C44.6655 96.6641 44.5275 96.2747 44.2515 95.9883C43.978 95.7018 43.6108 95.5586 43.1499 95.5586C42.8348 95.5586 42.5549 95.6263 42.3101 95.7617C42.0653 95.8971 41.8713 96.0924 41.728 96.3477C41.5874 96.6003 41.5171 96.901 41.5171 97.25ZM51.2231 96.3164L50.5864 96.4961C50.5239 96.3164 50.4354 96.1536 50.3208 96.0078C50.2062 95.862 50.0565 95.7461 49.8716 95.6602C49.6893 95.5742 49.4627 95.5312 49.1919 95.5312C48.7856 95.5312 48.4523 95.6276 48.1919 95.8203C47.9315 96.013 47.8013 96.2617 47.8013 96.5664C47.8013 96.8242 47.8898 97.0339 48.0669 97.1953C48.2466 97.3542 48.5226 97.4805 48.895 97.5742L49.8013 97.7969C50.3039 97.9193 50.6802 98.1133 50.9302 98.3789C51.1828 98.6445 51.3091 98.9779 51.3091 99.3789C51.3091 99.7174 51.2153 100.018 51.0278 100.281C50.8403 100.544 50.5786 100.751 50.2427 100.902C49.9093 101.051 49.5226 101.125 49.0825 101.125C48.4966 101.125 48.0135 100.993 47.6333 100.73C47.2531 100.465 47.0096 100.082 46.9028 99.582L47.5708 99.418C47.6567 99.7747 47.8247 100.044 48.0747 100.227C48.3273 100.409 48.6593 100.5 49.0708 100.5C49.5317 100.5 49.9002 100.397 50.1763 100.191C50.4523 99.9831 50.5903 99.7227 50.5903 99.4102C50.5903 99.168 50.5096 98.9648 50.3481 98.8008C50.1867 98.6341 49.9419 98.5117 49.6138 98.4336L48.6333 98.1992C48.1125 98.0742 47.7271 97.8763 47.4771 97.6055C47.2271 97.3346 47.1021 96.9987 47.1021 96.5977C47.1021 96.2669 47.1919 95.9766 47.3716 95.7266C47.5513 95.474 47.7987 95.276 48.1138 95.1328C48.4289 94.9896 48.7882 94.918 49.1919 94.918C49.7414 94.918 50.1802 95.043 50.5083 95.293C50.839 95.5404 51.0773 95.8815 51.2231 96.3164ZM55.1948 95V95.6055H52.3315V95H55.1948ZM53.2261 93.5625H53.9253V99.4336C53.9253 99.6836 53.9683 99.8802 54.0542 100.023C54.1401 100.164 54.2521 100.264 54.3901 100.324C54.5282 100.382 54.6753 100.41 54.8315 100.41C54.9227 100.41 55.0008 100.405 55.0659 100.395C55.131 100.382 55.1883 100.368 55.2378 100.355L55.3862 100.984C55.3185 101.01 55.2352 101.034 55.1362 101.055C55.0373 101.078 54.9149 101.09 54.769 101.09C54.5138 101.09 54.2677 101.034 54.0308 100.922C53.7964 100.81 53.6037 100.643 53.4526 100.422C53.3016 100.201 53.2261 99.9258 53.2261 99.5977V93.5625ZM56.7817 101V95H57.481V101H56.7817ZM57.1372 93.9687C56.994 93.9687 56.8716 93.9206 56.77 93.8242C56.6685 93.7253 56.6177 93.6068 56.6177 93.4687C56.6177 93.3307 56.6685 93.2135 56.77 93.1172C56.8716 93.0182 56.994 92.9687 57.1372 92.9687C57.2804 92.9687 57.4028 93.0182 57.5044 93.1172C57.606 93.2135 57.6567 93.3307 57.6567 93.4687C57.6567 93.6068 57.606 93.7253 57.5044 93.8242C57.4028 93.9206 57.2804 93.9687 57.1372 93.9687ZM61.6831 95V95.6055H58.8198V95H61.6831ZM59.7144 93.5625H60.4136V99.4336C60.4136 99.6836 60.4565 99.8802 60.5425 100.023C60.6284 100.164 60.7404 100.264 60.8784 100.324C61.0164 100.382 61.1636 100.41 61.3198 100.41C61.411 100.41 61.4891 100.405 61.5542 100.395C61.6193 100.382 61.6766 100.368 61.7261 100.355L61.8745 100.984C61.8068 101.01 61.7235 101.034 61.6245 101.055C61.5256 101.078 61.4032 101.09 61.2573 101.09C61.0021 101.09 60.756 101.034 60.519 100.922C60.2847 100.81 60.092 100.643 59.9409 100.422C59.7899 100.201 59.7144 99.9258 59.7144 99.5977V93.5625ZM67.0747 98.707V95H67.77V101H67.0747V100.004H67.02C66.8794 100.311 66.6567 100.568 66.3521 100.773C66.0474 100.977 65.675 101.078 65.2349 101.078C64.8521 101.078 64.5122 100.995 64.2153 100.828C63.9185 100.659 63.6854 100.411 63.5161 100.086C63.3468 99.7604 63.2622 99.3607 63.2622 98.8867V95H63.9575V98.8437C63.9575 99.3125 64.0955 99.6901 64.3716 99.9766C64.6476 100.26 65.0018 100.402 65.4341 100.402C65.7049 100.402 65.9653 100.337 66.2153 100.207C66.4653 100.077 66.6711 99.8867 66.8325 99.6367C66.994 99.3841 67.0747 99.0742 67.0747 98.707ZM71.9741 95V95.6055H69.1108V95H71.9741ZM70.0054 93.5625H70.7046V99.4336C70.7046 99.6836 70.7476 99.8802 70.8335 100.023C70.9194 100.164 71.0314 100.264 71.1694 100.324C71.3075 100.382 71.4546 100.41 71.6108 100.41C71.702 100.41 71.7801 100.405 71.8452 100.395C71.9103 100.382 71.9676 100.368 72.0171 100.355L72.1655 100.984C72.0978 101.01 72.0145 101.034 71.9155 101.055C71.8166 101.078 71.6942 101.09 71.5483 101.09C71.2931 101.09 71.047 101.034 70.8101 100.922C70.5757 100.81 70.383 100.643 70.2319 100.422C70.0809 100.201 70.0054 99.9258 70.0054 99.5977V93.5625ZM75.9146 101.125C75.3547 101.125 74.8703 100.995 74.4614 100.734C74.0526 100.471 73.7362 100.108 73.5122 99.6445C73.2909 99.1784 73.1802 98.6419 73.1802 98.0352C73.1802 97.431 73.2909 96.8945 73.5122 96.4258C73.7362 95.9544 74.0448 95.5859 74.438 95.3203C74.8338 95.0521 75.2909 94.918 75.8091 94.918C76.1346 94.918 76.4484 94.9779 76.7505 95.0977C77.0526 95.2148 77.3234 95.3958 77.563 95.6406C77.8052 95.8828 77.9966 96.1888 78.1372 96.5586C78.2778 96.9258 78.3481 97.3607 78.3481 97.8633V98.207H73.6606V97.5937H77.6372C77.6372 97.2083 77.5591 96.862 77.4028 96.5547C77.2492 96.2448 77.0343 96 76.7583 95.8203C76.4849 95.6406 76.1685 95.5508 75.8091 95.5508C75.4289 95.5508 75.0942 95.6523 74.8052 95.8555C74.5161 96.0586 74.2896 96.3268 74.1255 96.6602C73.964 96.9935 73.882 97.3581 73.8794 97.7539V98.1211C73.8794 98.5977 73.9614 99.0143 74.1255 99.3711C74.2922 99.7253 74.5278 100 74.8325 100.195C75.1372 100.391 75.4979 100.488 75.9146 100.488C76.1984 100.488 76.4471 100.444 76.6606 100.355C76.8768 100.267 77.0578 100.148 77.2036 100C77.3521 99.849 77.464 99.6836 77.5396 99.5039L78.1997 99.7187C78.1086 99.9714 77.9588 100.204 77.7505 100.418C77.5448 100.632 77.2869 100.803 76.9771 100.934C76.6698 101.061 76.3156 101.125 75.9146 101.125ZM85.3062 101.125C84.7879 101.125 84.3296 100.993 83.9312 100.73C83.5353 100.467 83.2254 100.104 83.0015 99.6406C82.7775 99.1745 82.6655 98.6367 82.6655 98.0273C82.6655 97.4128 82.7775 96.8724 83.0015 96.4062C83.2254 95.9375 83.5353 95.5729 83.9312 95.3125C84.3296 95.0495 84.7879 94.918 85.3062 94.918C85.8244 94.918 86.2814 95.0495 86.6772 95.3125C87.0731 95.5755 87.383 95.9401 87.6069 96.4062C87.8335 96.8724 87.9468 97.4128 87.9468 98.0273C87.9468 98.6367 87.8348 99.1745 87.6108 99.6406C87.3869 100.104 87.0757 100.467 86.6772 100.73C86.2814 100.993 85.8244 101.125 85.3062 101.125ZM85.3062 100.488C85.7228 100.488 86.0757 100.376 86.3647 100.152C86.6538 99.9284 86.8726 99.6302 87.021 99.2578C87.172 98.8854 87.2476 98.4753 87.2476 98.0273C87.2476 97.5794 87.172 97.168 87.021 96.793C86.8726 96.418 86.6538 96.1172 86.3647 95.8906C86.0757 95.6641 85.7228 95.5508 85.3062 95.5508C84.8921 95.5508 84.5392 95.6641 84.2476 95.8906C83.9585 96.1172 83.7384 96.418 83.5874 96.793C83.439 97.168 83.3647 97.5794 83.3647 98.0273C83.3647 98.4753 83.439 98.8854 83.5874 99.2578C83.7384 99.6302 83.9585 99.9284 84.2476 100.152C84.5366 100.376 84.8895 100.488 85.3062 100.488ZM91.9419 95V95.6055H88.9927V95H91.9419ZM89.9146 101V94.1211C89.9146 93.7982 89.9888 93.526 90.1372 93.3047C90.2882 93.0833 90.4849 92.9154 90.7271 92.8008C90.9692 92.6862 91.2257 92.6289 91.4966 92.6289C91.6789 92.6289 91.8299 92.6445 91.9497 92.6758C92.0721 92.7044 92.1685 92.7331 92.2388 92.7617L92.0356 93.3711C91.9836 93.3555 91.9198 93.3372 91.8442 93.3164C91.7687 93.2956 91.6737 93.2852 91.5591 93.2852C91.257 93.2852 91.0239 93.3698 90.8599 93.5391C90.6958 93.7083 90.6138 93.9505 90.6138 94.2656L90.6099 101H89.9146ZM95.8179 93H96.6616L99.0327 96.7969H99.103L101.474 93H102.318L99.4312 97.5352V101H98.7046V97.5352L95.8179 93ZM105.029 101.125C104.511 101.125 104.052 100.993 103.654 100.73C103.258 100.467 102.948 100.104 102.724 99.6406C102.5 99.1745 102.388 98.6367 102.388 98.0273C102.388 97.4128 102.5 96.8724 102.724 96.4062C102.948 95.9375 103.258 95.5729 103.654 95.3125C104.052 95.0495 104.511 94.918 105.029 94.918C105.547 94.918 106.004 95.0495 106.4 95.3125C106.796 95.5755 107.106 95.9401 107.33 96.4062C107.556 96.8724 107.669 97.4128 107.669 98.0273C107.669 98.6367 107.557 99.1745 107.333 99.6406C107.11 100.104 106.798 100.467 106.4 100.73C106.004 100.993 105.547 101.125 105.029 101.125ZM105.029 100.488C105.445 100.488 105.798 100.376 106.087 100.152C106.376 99.9284 106.595 99.6302 106.744 99.2578C106.895 98.8854 106.97 98.4753 106.97 98.0273C106.97 97.5794 106.895 97.168 106.744 96.793C106.595 96.418 106.376 96.1172 106.087 95.8906C105.798 95.6641 105.445 95.5508 105.029 95.5508C104.615 95.5508 104.262 95.6641 103.97 95.8906C103.681 96.1172 103.461 96.418 103.31 96.793C103.162 97.168 103.087 97.5794 103.087 98.0273C103.087 98.4753 103.162 98.8854 103.31 99.2578C103.461 99.6302 103.681 99.9284 103.97 100.152C104.259 100.376 104.612 100.488 105.029 100.488ZM113.008 98.707V95H113.704V101H113.008V100.004H112.954C112.813 100.311 112.59 100.568 112.286 100.773C111.981 100.977 111.609 101.078 111.168 101.078C110.786 101.078 110.446 100.995 110.149 100.828C109.852 100.659 109.619 100.411 109.45 100.086C109.28 99.7604 109.196 99.3607 109.196 98.8867V95H109.891V98.8437C109.891 99.3125 110.029 99.6901 110.305 99.9766C110.581 100.26 110.935 100.402 111.368 100.402C111.639 100.402 111.899 100.337 112.149 100.207C112.399 100.077 112.605 99.8867 112.766 99.6367C112.928 99.3841 113.008 99.0742 113.008 98.707ZM115.544 101V95H116.22V95.9219H116.271C116.391 95.6198 116.599 95.3763 116.896 95.1914C117.195 95.0039 117.534 94.9102 117.912 94.9102C117.969 94.9102 118.033 94.9115 118.103 94.9141C118.173 94.9167 118.232 94.9193 118.279 94.9219V95.6289C118.248 95.6237 118.193 95.6159 118.115 95.6055C118.037 95.5951 117.952 95.5898 117.861 95.5898C117.548 95.5898 117.27 95.6562 117.025 95.7891C116.783 95.9193 116.591 96.1003 116.451 96.332C116.31 96.5638 116.24 96.8281 116.24 97.125V101H115.544ZM122.704 101V93H125.286C125.853 93 126.327 93.1094 126.708 93.3281C127.09 93.5443 127.378 93.8385 127.571 94.2109C127.766 94.5833 127.864 95.0026 127.864 95.4687C127.864 95.9349 127.767 96.3555 127.575 96.7305C127.382 97.1029 127.096 97.3984 126.715 97.6172C126.335 97.8333 125.862 97.9414 125.297 97.9414H123.266V97.2852H125.278C125.697 97.2852 126.045 97.207 126.321 97.0508C126.597 96.8919 126.803 96.6758 126.938 96.4023C127.076 96.1289 127.145 95.8177 127.145 95.4687C127.145 95.1198 127.076 94.8086 126.938 94.5352C126.803 94.2617 126.596 94.0469 126.317 93.8906C126.041 93.7344 125.691 93.6562 125.266 93.6562H123.434V101H122.704ZM131.11 101.137C130.748 101.137 130.417 101.066 130.118 100.926C129.818 100.783 129.58 100.577 129.403 100.309C129.226 100.038 129.137 99.7096 129.137 99.3242C129.137 99.0273 129.193 98.7773 129.305 98.5742C129.417 98.3711 129.576 98.2044 129.782 98.0742C129.987 97.944 130.231 97.8411 130.512 97.7656C130.793 97.6901 131.103 97.6315 131.442 97.5898C131.778 97.5482 132.062 97.5117 132.293 97.4805C132.528 97.4492 132.706 97.3997 132.829 97.332C132.951 97.2643 133.012 97.1549 133.012 97.0039V96.8633C133.012 96.4544 132.89 96.1328 132.645 95.8984C132.403 95.6615 132.054 95.543 131.598 95.543C131.166 95.543 130.813 95.638 130.54 95.8281C130.269 96.0182 130.079 96.2422 129.969 96.5L129.309 96.2617C129.444 95.9336 129.632 95.6719 129.872 95.4766C130.111 95.2786 130.379 95.1367 130.676 95.0508C130.973 94.9622 131.274 94.918 131.579 94.918C131.808 94.918 132.046 94.9479 132.293 95.0078C132.543 95.0677 132.775 95.1719 132.989 95.3203C133.202 95.4661 133.375 95.6706 133.508 95.9336C133.641 96.194 133.708 96.5247 133.708 96.9258V101H133.012V100.051H132.969C132.886 100.228 132.762 100.4 132.598 100.566C132.434 100.733 132.228 100.87 131.981 100.977C131.734 101.083 131.443 101.137 131.11 101.137ZM131.204 100.5C131.573 100.5 131.894 100.418 132.165 100.254C132.435 100.09 132.644 99.8724 132.79 99.6016C132.938 99.3281 133.012 99.0273 133.012 98.6992V97.832C132.96 97.8815 132.873 97.9258 132.75 97.9648C132.631 98.0039 132.491 98.0391 132.333 98.0703C132.176 98.099 132.02 98.1237 131.864 98.1445C131.708 98.1654 131.567 98.1836 131.442 98.1992C131.103 98.2409 130.814 98.306 130.575 98.3945C130.335 98.4831 130.152 98.6055 130.024 98.7617C129.896 98.9154 129.833 99.1133 129.833 99.3555C129.833 99.7201 129.963 100.003 130.223 100.203C130.484 100.401 130.81 100.5 131.204 100.5ZM137.92 95V95.6055H135.057V95H137.92ZM135.952 93.5625H136.651V99.4336C136.651 99.6836 136.694 99.8802 136.78 100.023C136.866 100.164 136.978 100.264 137.116 100.324C137.254 100.382 137.401 100.41 137.557 100.41C137.648 100.41 137.726 100.405 137.792 100.395C137.857 100.382 137.914 100.368 137.963 100.355L138.112 100.984C138.044 101.01 137.961 101.034 137.862 101.055C137.763 101.078 137.64 101.09 137.495 101.09C137.239 101.09 136.993 101.034 136.756 100.922C136.522 100.81 136.329 100.643 136.178 100.422C136.027 100.201 135.952 99.9258 135.952 99.5977V93.5625ZM140.324 97.25V101H139.628V93H140.324V95.9414H140.386C140.527 95.6315 140.744 95.3841 141.039 95.1992C141.335 95.0143 141.71 94.9219 142.164 94.9219C142.57 94.9219 142.927 95.0052 143.234 95.1719C143.541 95.3385 143.781 95.5846 143.953 95.9102C144.125 96.2357 144.21 96.6367 144.21 97.1133V101H143.511V97.1562C143.511 96.6615 143.373 96.2721 143.097 95.9883C142.824 95.7018 142.454 95.5586 141.988 95.5586C141.667 95.5586 141.382 95.6263 141.132 95.7617C140.882 95.8971 140.684 96.0924 140.539 96.3477C140.395 96.6003 140.324 96.901 140.324 97.25ZM147.374 101L145.561 95H146.295L147.717 99.9492H147.768L149.186 95H149.924L151.331 99.9375H151.385L152.807 95H153.542L151.729 101H151.01L149.588 96.082H149.514L148.092 101H147.374ZM156.569 101.137C156.207 101.137 155.876 101.066 155.577 100.926C155.277 100.783 155.039 100.577 154.862 100.309C154.685 100.038 154.596 99.7096 154.596 99.3242C154.596 99.0273 154.652 98.7773 154.764 98.5742C154.876 98.3711 155.035 98.2044 155.241 98.0742C155.446 97.944 155.69 97.8411 155.971 97.7656C156.252 97.6901 156.562 97.6315 156.901 97.5898C157.237 97.5482 157.521 97.5117 157.752 97.4805C157.987 97.4492 158.165 97.3997 158.288 97.332C158.41 97.2643 158.471 97.1549 158.471 97.0039V96.8633C158.471 96.4544 158.349 96.1328 158.104 95.8984C157.862 95.6615 157.513 95.543 157.057 95.543C156.625 95.543 156.272 95.638 155.999 95.8281C155.728 96.0182 155.538 96.2422 155.428 96.5L154.768 96.2617C154.903 95.9336 155.091 95.6719 155.331 95.4766C155.57 95.2786 155.838 95.1367 156.135 95.0508C156.432 94.9622 156.733 94.918 157.038 94.918C157.267 94.918 157.505 94.9479 157.752 95.0078C158.002 95.0677 158.234 95.1719 158.448 95.3203C158.661 95.4661 158.834 95.6706 158.967 95.9336C159.1 96.194 159.167 96.5247 159.167 96.9258V101H158.471V100.051H158.428C158.345 100.228 158.221 100.4 158.057 100.566C157.893 100.733 157.687 100.87 157.44 100.977C157.193 101.083 156.902 101.137 156.569 101.137ZM156.663 100.5C157.032 100.5 157.353 100.418 157.624 100.254C157.894 100.09 158.103 99.8724 158.249 99.6016C158.397 99.3281 158.471 99.0273 158.471 98.6992V97.832C158.419 97.8815 158.332 97.9258 158.209 97.9648C158.09 98.0039 157.95 98.0391 157.792 98.0703C157.635 98.099 157.479 98.1237 157.323 98.1445C157.167 98.1654 157.026 98.1836 156.901 98.1992C156.562 98.2409 156.273 98.306 156.034 98.3945C155.794 98.4831 155.611 98.6055 155.483 98.7617C155.355 98.9154 155.292 99.1133 155.292 99.3555C155.292 99.7201 155.422 100.003 155.682 100.203C155.943 100.401 156.269 100.5 156.663 100.5ZM161.286 103.25C161.148 103.25 161.019 103.237 160.899 103.211C160.779 103.185 160.684 103.156 160.614 103.125L160.801 102.512C161.038 102.585 161.249 102.611 161.434 102.59C161.619 102.572 161.783 102.488 161.926 102.34C162.069 102.194 162.197 101.97 162.309 101.668L162.528 101.059L160.321 95H161.075L162.856 100.082H162.911L164.692 95H165.446L162.907 101.949C162.8 102.238 162.668 102.479 162.512 102.672C162.356 102.867 162.175 103.012 161.969 103.105C161.766 103.202 161.538 103.25 161.286 103.25ZM172.263 95V95.6055H169.4V95H172.263ZM170.294 93.5625H170.994V99.4336C170.994 99.6836 171.037 99.8802 171.123 100.023C171.208 100.164 171.32 100.264 171.458 100.324C171.597 100.382 171.744 100.41 171.9 100.41C171.991 100.41 172.069 100.405 172.134 100.395C172.199 100.382 172.257 100.368 172.306 100.355L172.455 100.984C172.387 101.01 172.304 101.034 172.205 101.055C172.106 101.078 171.983 101.09 171.837 101.09C171.582 101.09 171.336 101.034 171.099 100.922C170.865 100.81 170.672 100.643 170.521 100.422C170.37 100.201 170.294 99.9258 170.294 99.5977V93.5625ZM176.11 101.125C175.592 101.125 175.133 100.993 174.735 100.73C174.339 100.467 174.029 100.104 173.805 99.6406C173.581 99.1745 173.469 98.6367 173.469 98.0273C173.469 97.4128 173.581 96.8724 173.805 96.4062C174.029 95.9375 174.339 95.5729 174.735 95.3125C175.133 95.0495 175.592 94.918 176.11 94.918C176.628 94.918 177.085 95.0495 177.481 95.3125C177.877 95.5755 178.187 95.9401 178.411 96.4062C178.637 96.8724 178.75 97.4128 178.75 98.0273C178.75 98.6367 178.639 99.1745 178.415 99.6406C178.191 100.104 177.879 100.467 177.481 100.73C177.085 100.993 176.628 101.125 176.11 101.125ZM176.11 100.488C176.527 100.488 176.879 100.376 177.168 100.152C177.458 99.9284 177.676 99.6302 177.825 99.2578C177.976 98.8854 178.051 98.4753 178.051 98.0273C178.051 97.5794 177.976 97.168 177.825 96.793C177.676 96.418 177.458 96.1172 177.168 95.8906C176.879 95.6641 176.527 95.5508 176.11 95.5508C175.696 95.5508 175.343 95.6641 175.051 95.8906C174.762 96.1172 174.542 96.418 174.391 96.793C174.243 97.168 174.168 97.5794 174.168 98.0273C174.168 98.4753 174.243 98.8854 174.391 99.2578C174.542 99.6302 174.762 99.9284 175.051 100.152C175.34 100.376 175.693 100.488 176.11 100.488ZM187.859 95C187.815 94.5547 187.618 94.2005 187.269 93.9375C186.92 93.6745 186.481 93.543 185.953 93.543C185.58 93.543 185.252 93.6068 184.968 93.7344C184.687 93.862 184.466 94.0391 184.304 94.2656C184.145 94.4896 184.066 94.7448 184.066 95.0313C184.066 95.2422 184.111 95.4271 184.203 95.5859C184.294 95.7448 184.416 95.8815 184.57 95.9961C184.726 96.1081 184.898 96.2044 185.085 96.2852C185.276 96.3659 185.467 96.4336 185.66 96.4883L186.503 96.7305C186.759 96.8008 187.014 96.8906 187.269 97C187.524 97.1094 187.757 97.2474 187.968 97.4141C188.182 97.5781 188.352 97.7799 188.48 98.0195C188.61 98.2565 188.675 98.5417 188.675 98.875C188.675 99.3021 188.565 99.6862 188.343 100.027C188.122 100.368 187.804 100.639 187.39 100.84C186.976 101.038 186.48 101.137 185.902 101.137C185.358 101.137 184.885 101.047 184.484 100.867C184.083 100.685 183.768 100.434 183.539 100.113C183.309 99.793 183.181 99.4219 183.152 99H183.902C183.928 99.3151 184.032 99.582 184.214 99.8008C184.397 100.02 184.634 100.186 184.925 100.301C185.217 100.413 185.542 100.469 185.902 100.469C186.3 100.469 186.654 100.402 186.964 100.27C187.277 100.134 187.522 99.9466 187.699 99.707C187.878 99.4648 187.968 99.1836 187.968 98.8633C187.968 98.5924 187.898 98.3659 187.757 98.1836C187.617 97.9987 187.42 97.8437 187.167 97.7187C186.917 97.5937 186.627 97.4831 186.296 97.3867L185.339 97.1055C184.712 96.918 184.225 96.6589 183.878 96.3281C183.532 95.9974 183.359 95.5755 183.359 95.0625C183.359 94.6328 183.473 94.2552 183.703 93.9297C183.934 93.6016 184.247 93.3464 184.64 93.1641C185.036 92.9792 185.48 92.8867 185.972 92.8867C186.47 92.8867 186.91 92.9779 187.292 93.1602C187.675 93.3424 187.979 93.5937 188.203 93.9141C188.429 94.2318 188.55 94.5937 188.566 95H187.859ZM194.101 98.707V95H194.796V101H194.101V100.004H194.046C193.906 100.311 193.683 100.568 193.378 100.773C193.074 100.977 192.701 101.078 192.261 101.078C191.878 101.078 191.539 100.995 191.242 100.828C190.945 100.659 190.712 100.411 190.542 100.086C190.373 99.7604 190.289 99.3607 190.289 98.8867V95H190.984V98.8437C190.984 99.3125 191.122 99.6901 191.398 99.9766C191.674 100.26 192.028 100.402 192.46 100.402C192.731 100.402 192.992 100.337 193.242 100.207C193.492 100.077 193.697 99.8867 193.859 99.6367C194.02 99.3841 194.101 99.0742 194.101 98.707ZM198.981 101.125C198.444 101.125 197.977 100.991 197.579 100.723C197.183 100.454 196.875 100.087 196.657 99.6211C196.438 99.1549 196.329 98.6237 196.329 98.0273C196.329 97.4258 196.439 96.8906 196.661 96.4219C196.885 95.9531 197.194 95.5859 197.59 95.3203C197.986 95.0521 198.446 94.918 198.969 94.918C199.37 94.918 199.734 94.9961 200.059 95.1523C200.385 95.306 200.653 95.5234 200.864 95.8047C201.077 96.0833 201.211 96.4089 201.266 96.7812H200.563C200.49 96.4427 200.314 96.1536 200.036 95.9141C199.76 95.6719 199.408 95.5508 198.981 95.5508C198.598 95.5508 198.26 95.6549 197.965 95.8633C197.671 96.069 197.441 96.3568 197.274 96.7266C197.11 97.0937 197.028 97.5195 197.028 98.0039C197.028 98.4909 197.109 98.9219 197.27 99.2969C197.431 99.6693 197.658 99.9609 197.95 100.172C198.244 100.383 198.588 100.488 198.981 100.488C199.247 100.488 199.489 100.439 199.708 100.34C199.929 100.238 200.114 100.095 200.262 99.9102C200.413 99.7253 200.515 99.5052 200.567 99.25H201.27C201.218 99.612 201.089 99.9349 200.883 100.219C200.68 100.5 200.416 100.721 200.09 100.883C199.767 101.044 199.398 101.125 198.981 101.125ZM205.104 101.125C204.568 101.125 204.1 100.991 203.702 100.723C203.306 100.454 202.999 100.087 202.78 99.6211C202.561 99.1549 202.452 98.6237 202.452 98.0273C202.452 97.4258 202.562 96.8906 202.784 96.4219C203.008 95.9531 203.318 95.5859 203.713 95.3203C204.109 95.0521 204.569 94.918 205.092 94.918C205.493 94.918 205.857 94.9961 206.182 95.1523C206.508 95.306 206.776 95.5234 206.987 95.8047C207.2 96.0833 207.334 96.4089 207.389 96.7812H206.686C206.613 96.4427 206.437 96.1536 206.159 95.9141C205.883 95.6719 205.531 95.5508 205.104 95.5508C204.721 95.5508 204.383 95.6549 204.088 95.8633C203.794 96.069 203.564 96.3568 203.397 96.7266C203.233 97.0937 203.151 97.5195 203.151 98.0039C203.151 98.4909 203.232 98.9219 203.393 99.2969C203.555 99.6693 203.781 99.9609 204.073 100.172C204.367 100.383 204.711 100.488 205.104 100.488C205.37 100.488 205.612 100.439 205.831 100.34C206.052 100.238 206.237 100.095 206.385 99.9102C206.536 99.7253 206.638 99.5052 206.69 99.25H207.393C207.341 99.612 207.212 99.9349 207.006 100.219C206.803 100.5 206.539 100.721 206.213 100.883C205.89 101.044 205.521 101.125 205.104 101.125ZM211.309 101.125C210.749 101.125 210.265 100.995 209.856 100.734C209.447 100.471 209.131 100.108 208.907 99.6445C208.685 99.1784 208.575 98.6419 208.575 98.0352C208.575 97.431 208.685 96.8945 208.907 96.4258C209.131 95.9544 209.439 95.5859 209.833 95.3203C210.228 95.0521 210.685 94.918 211.204 94.918C211.529 94.918 211.843 94.9779 212.145 95.0977C212.447 95.2148 212.718 95.3958 212.958 95.6406C213.2 95.8828 213.391 96.1888 213.532 96.5586C213.672 96.9258 213.743 97.3607 213.743 97.8633V98.207H209.055V97.5937H213.032C213.032 97.2083 212.954 96.862 212.797 96.5547C212.644 96.2448 212.429 96 212.153 95.8203C211.879 95.6406 211.563 95.5508 211.204 95.5508C210.823 95.5508 210.489 95.6523 210.2 95.8555C209.911 96.0586 209.684 96.3268 209.52 96.6602C209.359 96.9935 209.277 97.3581 209.274 97.7539V98.1211C209.274 98.5977 209.356 99.0143 209.52 99.3711C209.687 99.7253 209.922 100 210.227 100.195C210.532 100.391 210.892 100.488 211.309 100.488C211.593 100.488 211.842 100.444 212.055 100.355C212.271 100.267 212.452 100.148 212.598 100C212.747 99.849 212.859 99.6836 212.934 99.5039L213.594 99.7187C213.503 99.9714 213.353 100.204 213.145 100.418C212.939 100.632 212.681 100.803 212.372 100.934C212.064 101.061 211.71 101.125 211.309 101.125ZM219.306 96.3164L218.669 96.4961C218.607 96.3164 218.518 96.1536 218.404 96.0078C218.289 95.862 218.139 95.7461 217.955 95.6602C217.772 95.5742 217.546 95.5312 217.275 95.5312C216.869 95.5312 216.535 95.6276 216.275 95.8203C216.014 96.013 215.884 96.2617 215.884 96.5664C215.884 96.8242 215.973 97.0339 216.15 97.1953C216.33 97.3542 216.606 97.4805 216.978 97.5742L217.884 97.7969C218.387 97.9193 218.763 98.1133 219.013 98.3789C219.266 98.6445 219.392 98.9779 219.392 99.3789C219.392 99.7174 219.298 100.018 219.111 100.281C218.923 100.544 218.662 100.751 218.326 100.902C217.992 101.051 217.606 101.125 217.166 101.125C216.58 101.125 216.097 100.993 215.716 100.73C215.336 100.465 215.093 100.082 214.986 99.582L215.654 99.418C215.74 99.7747 215.908 100.044 216.158 100.227C216.41 100.409 216.742 100.5 217.154 100.5C217.615 100.5 217.983 100.397 218.259 100.191C218.535 99.9831 218.673 99.7227 218.673 99.4102C218.673 99.168 218.593 98.9648 218.431 98.8008C218.27 98.6341 218.025 98.5117 217.697 98.4336L216.716 98.1992C216.195 98.0742 215.81 97.8763 215.56 97.6055C215.31 97.3346 215.185 96.9987 215.185 96.5977C215.185 96.2669 215.275 95.9766 215.455 95.7266C215.634 95.474 215.882 95.276 216.197 95.1328C216.512 94.9896 216.871 94.918 217.275 94.918C217.824 94.918 218.263 95.043 218.591 95.293C218.922 95.5404 219.16 95.8815 219.306 96.3164ZM224.946 96.3164L224.309 96.4961C224.247 96.3164 224.158 96.1536 224.043 96.0078C223.929 95.862 223.779 95.7461 223.594 95.6602C223.412 95.5742 223.185 95.5312 222.915 95.5312C222.508 95.5312 222.175 95.6276 221.915 95.8203C221.654 96.013 221.524 96.2617 221.524 96.5664C221.524 96.8242 221.612 97.0339 221.79 97.1953C221.969 97.3542 222.245 97.4805 222.618 97.5742L223.524 97.7969C224.027 97.9193 224.403 98.1133 224.653 98.3789C224.905 98.6445 225.032 98.9779 225.032 99.3789C225.032 99.7174 224.938 100.018 224.75 100.281C224.563 100.544 224.301 100.751 223.965 100.902C223.632 101.051 223.245 101.125 222.805 101.125C222.219 101.125 221.736 100.993 221.356 100.73C220.976 100.465 220.732 100.082 220.625 99.582L221.293 99.418C221.379 99.7747 221.547 100.044 221.797 100.227C222.05 100.409 222.382 100.5 222.793 100.5C223.254 100.5 223.623 100.397 223.899 100.191C224.175 99.9831 224.313 99.7227 224.313 99.4102C224.313 99.168 224.232 98.9648 224.071 98.8008C223.909 98.6341 223.665 98.5117 223.336 98.4336L222.356 98.1992C221.835 98.0742 221.45 97.8763 221.2 97.6055C220.95 97.3346 220.825 96.9987 220.825 96.5977C220.825 96.2669 220.915 95.9766 221.094 95.7266C221.274 95.474 221.521 95.276 221.836 95.1328C222.152 94.9896 222.511 94.918 222.915 94.918C223.464 94.918 223.903 95.043 224.231 95.293C224.562 95.5404 224.8 95.8815 224.946 96.3164Z" fill="#000F66"/>
<defs>
<clipPath id="clip0_5_50">
<rect width="58.65" height="58.65" fill="white" transform="translate(94)"/>
</clipPath>
</defs>
</svg>
