<svg width="300" height="71" viewBox="0 0 300 71" fill="none" xmlns="http://www.w3.org/2000/svg">
<g clip-path="url(#clip0_15_14)">
<path d="M25.9 11.72C25.12 12.05 24.4 12.07 23.72 11.77C23.04 11.47 22.54 10.95 22.22 10.19C21.87 9.36999 21.85 8.61999 22.14 7.91999C22.43 7.22999 23 6.69999 23.84 6.34999C24.28 6.15999 24.74 6.03999 25.2 5.98999L25.85 7.19999H25.84C25.6 7.04999 25.33 6.95999 25.04 6.94999C24.74 6.93999 24.45 6.98999 24.16 7.11999C23.65 7.33999 23.31 7.66999 23.16 8.11999C23 8.56999 23.05 9.07999 23.29 9.64999C23.53 10.22 23.86 10.63 24.28 10.87C24.7 11.11 25.16 11.12 25.65 10.91C26.03 10.75 26.31 10.55 26.51 10.3C26.71 10.05 26.86 9.74999 26.95 9.39999H26.97L27.35 10.78C26.9 11.19 26.42 11.5 25.91 11.72H25.9Z" fill="#222B57"/>
<path d="M33.47 8.49997C33.61 8.76997 33.77 9.00997 33.95 9.21997C34.13 9.42997 34.29 9.57997 34.42 9.65997V9.67997L32.65 9.92997V9.90997C32.71 9.83997 32.74 9.72997 32.72 9.57997C32.71 9.41997 32.63 9.20997 32.51 8.94997L32.41 8.76997L30.38 9.05997L30.34 9.25997C30.29 9.55997 30.28 9.77997 30.31 9.92997C30.34 10.08 30.39 10.18 30.47 10.23V10.25L28.82 10.49V10.47C29.08 10.15 29.28 9.68997 29.4 9.08997L30.06 5.68997C30.09 5.43997 30.07 5.23997 30.02 5.08997C29.97 4.93997 29.89 4.84997 29.79 4.78997V4.76997L31.87 4.46997V4.48997C31.8 4.58997 31.75 4.70997 31.73 4.84997C31.71 4.99997 31.76 5.18997 31.86 5.42997L33.48 8.49997H33.47ZM30.91 5.66997C30.92 6.07997 30.85 6.63997 30.71 7.37997L30.54 8.24997L32.05 8.02997L31.64 7.23997C31.28 6.54997 31.05 6.02997 30.95 5.65997H30.92L30.91 5.66997Z" fill="#222B57"/>
<path d="M35.81 9.70998V9.68998C35.94 9.62998 36.05 9.49998 36.16 9.30998C36.27 9.11998 36.34 8.87998 36.37 8.57998L36.74 5.46998C36.77 5.19998 36.76 4.94998 36.7 4.71998C36.64 4.48998 36.56 4.33998 36.46 4.24998V4.22998L38.75 4.49998C39.59 4.59998 40.22 4.91998 40.66 5.45998C41.1 5.99998 41.27 6.69998 41.17 7.54998C41.07 8.42998 40.75 9.07998 40.22 9.48998C39.69 9.90998 38.94 10.06 37.98 9.94998L35.82 9.69998L35.81 9.70998ZM37.41 9.09998L38.14 9.18998C38.67 9.24998 39.09 9.12998 39.41 8.82998C39.73 8.52998 39.92 8.05998 40 7.41998C40.08 6.74998 40 6.23998 39.76 5.88998C39.52 5.53998 39.12 5.32998 38.56 5.26998L37.87 5.18998L37.41 9.10998V9.09998Z" fill="#222B57"/>
<path d="M42.67 10.79V10.77C42.81 10.74 42.96 10.65 43.12 10.5C43.27 10.35 43.41 10.13 43.52 9.84995L44.72 6.94995C44.82 6.69995 44.88 6.44995 44.88 6.21995C44.88 5.98995 44.85 5.80995 44.77 5.69995L46.9 6.55995C47.68 6.87995 48.2 7.35995 48.48 7.99995C48.76 8.63995 48.73 9.35995 48.4 10.15C48.06 10.97 47.58 11.51 46.95 11.76C46.32 12.02 45.56 11.97 44.67 11.6L42.66 10.77L42.67 10.79ZM44.37 10.64L45.05 10.92C45.54 11.12 45.98 11.12 46.37 10.92C46.76 10.71 47.07 10.32 47.32 9.71995C47.58 9.09995 47.64 8.58995 47.51 8.18995C47.38 7.78995 47.05 7.47995 46.53 7.26995L45.88 6.99995L44.38 10.65L44.37 10.64Z" fill="#222B57"/>
<path d="M5.50999 46.6H5.51999C5.93999 46.7 6.35999 46.66 6.78999 46.47L9.68999 45.2C9.91999 45.1 10.14 44.96 10.33 44.78C10.52 44.6 10.62 44.41 10.63 44.22H10.65L11.51 45.88C11.33 45.85 11.13 46 10.91 46.34L10.05 47.69C9.75999 48.15 9.43999 48.5 9.08999 48.76L9.10999 48.79C9.44999 48.71 9.93999 48.68 10.58 48.7L12.2 48.76C12.59 48.77 12.82 48.7 12.89 48.54L13.76 50.21V50.23C13.59 50.12 13.38 50.09 13.11 50.14C12.84 50.19 12.6 50.28 12.39 50.4L9.69999 52.08C9.26999 52.35 8.98999 52.68 8.86999 53.05H8.84999L7.98999 51.4V51.38C8.10999 51.42 8.24999 51.43 8.43999 51.39C8.61999 51.35 8.81999 51.28 9.01999 51.15L10.46 50.26C10.8 50.05 11.22 49.85 11.73 49.66L11.71 49.63C11.24 49.72 10.73 49.74 10.19 49.71L8.40999 49.61C7.96999 49.58 7.61999 49.62 7.35999 49.73L7.32999 49.67C7.55999 49.51 7.78999 49.24 8.00999 48.86L8.93999 47.29C9.18999 46.87 9.49999 46.49 9.88999 46.13L9.86999 46.1C9.45999 46.38 9.04999 46.61 8.64999 46.79L7.10999 47.49C6.65999 47.7 6.39999 47.93 6.33999 48.19H6.31999L5.48999 46.6H5.50999Z" fill="#222B57"/>
<path d="M14.96 57.83C14.82 58.11 14.72 58.39 14.65 58.66C14.58 58.94 14.55 59.16 14.57 59.32H14.56L13.28 58.01H13.29C13.39 58.01 13.49 57.97 13.61 57.86C13.73 57.75 13.86 57.57 14.01 57.3L14.1 57.11L12.64 55.6L12.45 55.68C12.18 55.82 11.98 55.94 11.88 56.05C11.77 56.16 11.72 56.26 11.72 56.36H11.71L10.52 55.14H10.53C10.95 55.16 11.45 55.04 12.03 54.78L15.25 53.28C15.48 53.15 15.64 53.02 15.72 52.89C15.8 52.76 15.84 52.63 15.83 52.51H15.84L17.34 54.05H17.33C17.2 54.05 17.07 54.09 16.94 54.16C16.81 54.24 16.68 54.39 16.54 54.61L14.96 57.81V57.83ZM15.77 54C15.44 54.25 14.93 54.54 14.23 54.86L13.4 55.24L14.49 56.36L14.9 55.54C15.25 54.83 15.55 54.32 15.79 54.02L15.77 54Z" fill="#222B57"/>
<path d="M16.76 61.0499C16.9 61.0299 17.07 60.9599 17.25 60.8199C17.43 60.6899 17.6 60.4899 17.76 60.2199L19.43 57.4199C19.55 57.2099 19.64 56.9999 19.68 56.7699C19.73 56.5399 19.72 56.3499 19.64 56.1899L21.23 57.1199C21.15 57.2799 21.11 57.5599 21.12 57.9599V60.2499C21.12 60.6999 21.06 61.2899 20.94 62.0199L20.97 62.0399C21.15 61.5699 21.4 61.0699 21.72 60.5299L22.47 59.2699C22.63 58.9999 22.73 58.7499 22.77 58.5399C22.81 58.3199 22.79 58.1499 22.73 58.0199L24.35 58.9699C24.21 58.9899 24.05 59.0599 23.87 59.1899C23.69 59.3299 23.52 59.5299 23.36 59.7899L21.71 62.5599C21.55 62.8299 21.46 63.0699 21.42 63.2999C21.39 63.5199 21.4 63.6999 21.47 63.8299L19.99 62.9599C20.03 62.7099 20.04 62.4199 20.04 62.0899L20.01 59.8999C20 59.2599 20.07 58.5799 20.23 57.8699L20.2 57.8499C19.99 58.3999 19.71 58.9699 19.36 59.5499L18.65 60.7399C18.49 61.0099 18.39 61.2499 18.35 61.4699C18.31 61.6899 18.33 61.8599 18.39 61.9899L16.77 61.0399L16.76 61.0499Z" fill="#222B57"/>
<path d="M27.24 65.9899C26.41 65.7599 25.81 65.3099 25.46 64.6399C25.1 63.9699 25.04 63.2299 25.27 62.4099C25.52 61.5299 25.98 60.91 26.65 60.54C27.33 60.17 28.12 60.1099 29.02 60.3599C29.5 60.4899 29.94 60.6899 30.35 60.9399L30.1 62.33H30.08C29.99 62.05 29.83 61.8099 29.6 61.6099C29.37 61.4099 29.1 61.2699 28.79 61.1799C28.24 61.0299 27.76 61.0799 27.34 61.3499C26.92 61.6199 26.63 62.0499 26.46 62.6599C26.29 63.2799 26.29 63.8199 26.48 64.2699C26.67 64.7199 27.02 65.0299 27.56 65.1799C27.96 65.2899 28.32 65.3099 28.64 65.2399C28.96 65.1699 29.27 65.0199 29.57 64.7899H29.58L29 66.15C28.38 66.19 27.79 66.13 27.24 65.98V65.9899Z" fill="#222B57"/>
<path d="M37.59 61.2799C37.47 61.3599 37.36 61.4999 37.27 61.7099C37.18 61.9099 37.13 62.1699 37.13 62.4799L37.08 65.7299C37.08 66.0299 37.11 66.2799 37.2 66.4899C37.28 66.6999 37.38 66.8399 37.5 66.9199V66.9399L35.53 66.9099V66.8899C35.64 66.8099 35.74 66.6699 35.83 66.4699C35.92 66.2699 35.96 66.0199 35.97 65.7299L35.99 64.2999L33.82 64.2599L33.8 65.6499C33.8 65.9599 33.83 66.2199 33.91 66.4299C33.99 66.6399 34.08 66.7799 34.2 66.8699V66.8899L32.23 66.8599V66.8399C32.35 66.7599 32.46 66.6199 32.55 66.4099C32.64 66.2099 32.69 65.9499 32.69 65.6399L32.74 62.4199C32.74 62.1099 32.7 61.8399 32.62 61.6399C32.54 61.4299 32.44 61.2899 32.32 61.2099V61.1899L34.29 61.2199V61.2399C34.18 61.3199 34.08 61.4599 33.99 61.6699C33.9 61.8799 33.86 62.1299 33.85 62.4399L33.83 63.4499L36 63.4899L36.02 62.4799C36.02 62.1699 35.99 61.9099 35.91 61.6999C35.83 61.4899 35.74 61.3499 35.62 61.2599V61.2399L37.59 61.2699V61.2899V61.2799Z" fill="#222B57"/>
<path d="M44.47 63.96H44.49L44.65 65.59C44.38 65.61 44.05 65.67 43.67 65.76L40.88 66.44V66.42C40.97 66.31 41.04 66.15 41.07 65.93C41.11 65.71 41.09 65.45 41.01 65.15L40.25 62.02C40.17 61.71 40.07 61.47 39.94 61.29C39.81 61.11 39.67 61 39.54 60.95V60.93L42.38 60.24C42.76 60.15 43.03 60.06 43.2 59.97L43.68 61.35H43.67C43.38 61.02 42.92 60.92 42.28 61.08L41.23 61.33L41.57 62.72L42.17 62.57C42.72 62.44 43.13 62.32 43.39 62.21L43.49 63.6H43.47C43.26 63.3 42.93 63.21 42.48 63.32L41.75 63.5L42.18 65.28L43.04 65.07C43.75 64.9 44.22 64.52 44.45 63.94L44.47 63.96Z" fill="#222B57"/>
<path d="M49.28 63.7499C48.64 64.0799 48.1 64.2299 47.66 64.1899L46.93 63.0299V63.0099C47.61 63.3399 48.24 63.3399 48.83 63.0299C49.39 62.7399 49.56 62.3799 49.35 61.9499C49.29 61.8299 49.21 61.7299 49.12 61.6599C49.03 61.5899 48.91 61.5499 48.77 61.5299C48.63 61.5099 48.51 61.4999 48.41 61.4999C48.31 61.4999 48.16 61.4999 47.96 61.5199C47.76 61.5399 47.6 61.5399 47.49 61.5399C47.38 61.5399 47.23 61.5399 47.04 61.5099C46.85 61.4899 46.7 61.4399 46.57 61.3799C46.45 61.3199 46.32 61.2199 46.18 61.0899C46.04 60.9599 45.93 60.7999 45.83 60.5999C45.64 60.2099 45.64 59.8099 45.82 59.3799C46 58.9499 46.36 58.6099 46.9 58.3399C47.27 58.1599 47.68 58.0199 48.12 57.9299L48.81 59.0799H48.8C48.34 58.8199 47.86 58.8099 47.35 59.0599C46.79 59.3399 46.6 59.6599 46.79 60.0399C46.84 60.1399 46.91 60.2199 46.99 60.2799C47.07 60.3399 47.18 60.3699 47.31 60.3899C47.44 60.4099 47.56 60.4099 47.65 60.4099C47.74 60.4099 47.88 60.4099 48.07 60.3899C48.25 60.3899 48.38 60.3699 48.48 60.3699C48.58 60.3699 48.71 60.3699 48.88 60.3699C49.05 60.3699 49.19 60.3999 49.3 60.4499C49.41 60.4899 49.53 60.5499 49.67 60.6199C49.8 60.6899 49.93 60.7899 50.03 60.9199C50.14 61.0499 50.24 61.1999 50.32 61.3699C50.53 61.7899 50.55 62.2199 50.38 62.6599C50.21 63.0999 49.84 63.4599 49.28 63.7399V63.7499Z" fill="#222B57"/>
<path d="M53.02 54.22L54.06 55.3V55.32C53.87 55.24 53.67 55.22 53.45 55.25C53.23 55.28 53.03 55.36 52.85 55.51L52.37 55.89L54.58 58.66C54.79 58.92 54.99 59.11 55.21 59.22C55.42 59.33 55.61 59.38 55.76 59.35H55.77L54.12 60.68H54.11C54.17 60.53 54.16 60.34 54.1 60.1C54.04 59.86 53.91 59.62 53.71 59.36L51.5 56.59L51.02 56.98C50.84 57.13 50.71 57.3 50.63 57.51C50.55 57.72 50.53 57.92 50.56 58.11H50.54L49.72 56.86C50.01 56.69 50.31 56.47 50.63 56.22L52.19 54.98C52.51 54.72 52.79 54.47 53.02 54.23V54.22Z" fill="#222B57"/>
<path d="M60.09 52.34H60.11L61.23 53.52C61.03 53.7 60.81 53.95 60.56 54.26L58.77 56.51H58.76C58.77 56.36 58.72 56.18 58.62 55.99C58.51 55.79 58.34 55.6 58.1 55.41L55.58 53.4C55.33 53.2 55.1 53.08 54.89 53.02C54.68 52.96 54.5 52.95 54.36 53H54.35L56.17 50.7C56.41 50.4 56.57 50.16 56.66 49.98L57.89 50.78V50.8C57.45 50.7 57.03 50.91 56.62 51.42L55.95 52.26L57.07 53.15L57.46 52.67C57.81 52.23 58.06 51.89 58.21 51.64L59.13 52.68H59.12C58.77 52.58 58.45 52.71 58.16 53.07L57.69 53.66L59.12 54.8L59.67 54.1C60.13 53.53 60.27 52.94 60.09 52.34Z" fill="#222B57"/>
<path d="M63.7 46.5199C64.29 46.4499 64.73 46.2599 65.01 45.9599H65.03L64.6 47.6099C64.28 47.5699 63.94 47.5699 63.61 47.6099L61.12 47.8399L61.29 47.4899C61.6 46.8299 61.45 46.3599 60.84 46.0699C60.57 45.9399 60.32 45.9299 60.08 46.0299C59.84 46.1299 59.65 46.3399 59.51 46.6499L59.28 47.1699L62.6 48.7199C62.87 48.8399 63.11 48.9099 63.33 48.9299C63.55 48.9399 63.72 48.9199 63.84 48.8499H63.86L63.03 50.6399H63.02C63 50.4899 62.92 50.3399 62.76 50.1699C62.61 49.9999 62.39 49.8499 62.11 49.7199L59.16 48.3399C58.89 48.2099 58.64 48.1499 58.42 48.1399C58.2 48.1399 58.03 48.1699 57.91 48.2399H57.89L58.87 46.1399C59.14 45.5499 59.5 45.1599 59.93 44.9599C60.36 44.7599 60.82 44.7699 61.3 44.9999C62.06 45.3499 62.39 45.9199 62.29 46.6899L63.73 46.5199H63.7Z" fill="#222B57"/>
<path d="M35.26 69.4701C16.4 69.4701 1.06 54.1301 1.06 35.2601C1.06 16.3901 16.4 1.06006 35.26 1.06006C54.12 1.06006 69.47 16.4101 69.47 35.2701C69.47 54.1301 54.12 69.4801 35.26 69.4801V69.4701ZM35.26 1.90006C16.87 1.90006 1.9 16.8701 1.9 35.2601C1.9 53.6501 16.87 68.6201 35.26 68.6201C53.65 68.6201 68.62 53.6501 68.62 35.2601C68.62 16.8701 53.66 1.90006 35.26 1.90006Z" fill="#222B57"/>
<path d="M35.26 70.53C15.82 70.53 0 54.71 0 35.26C0 15.81 15.82 0 35.26 0C54.7 0 70.52 15.82 70.52 35.26C70.52 54.7 54.7 70.52 35.26 70.52V70.53ZM35.26 0.42C16.05 0.42 0.42 16.05 0.42 35.26C0.42 54.47 16.05 70.1 35.26 70.1C54.47 70.1 70.1 54.47 70.1 35.26C70.1 16.05 54.47 0.42 35.26 0.42Z" fill="#222B57"/>
<mask id="mask0_15_14" style="mask-type:luminance" maskUnits="userSpaceOnUse" x="1" y="1" width="69" height="69">
<path d="M35.26 1.47998C16.6 1.47998 1.47998 16.6 1.47998 35.26C1.47998 53.92 16.61 69.04 35.26 69.04C53.91 69.04 69.04 53.91 69.04 35.26C69.04 16.61 53.92 1.47998 35.26 1.47998ZM35.26 58.49C22.43 58.49 12.03 48.09 12.03 35.26C12.03 22.43 22.43 12.03 35.26 12.03C48.09 12.03 58.49 22.43 58.49 35.26C58.49 48.09 48.09 58.49 35.26 58.49Z" fill="white"/>
</mask>
<g mask="url(#mask0_15_14)">
<path d="M58.79 17.6399C58.64 24.6199 52.89 29.7099 46.47 28.7699C44.37 28.4599 43.77 27.3599 43.66 25.5499C43.31 19.9599 47.93 14.7999 53.68 14.3799C54.27 14.3399 54.87 14.3399 55.47 14.3299C58.59 14.3099 58.85 14.5799 58.79 17.6399Z" fill="#79B0DF"/>
<path d="M11.7399 17.6399C11.8899 24.6199 17.6399 29.7099 24.0599 28.7699C26.1599 28.4599 26.7599 27.3599 26.8699 25.5499C27.2199 19.9599 22.5999 14.7999 16.8499 14.3799C16.2599 14.3399 15.6599 14.3399 15.0599 14.3299C11.9399 14.3099 11.6799 14.5799 11.7399 17.6399Z" fill="#79B0DF"/>
<path d="M49.34 37.1099C46.41 37.0699 43.84 36.0799 41.58 34.2299C40.78 33.5699 40.52 32.9099 40.87 31.8399C42.44 27.0099 45.45 23.6099 50.46 22.3599C54.44 21.3699 58.33 22.1099 62.12 23.5099C65.02 24.5799 65.04 24.5699 63.54 27.2299C61.45 30.9399 58.94 34.2499 54.87 36.0299C53.1 36.7999 51.27 37.1899 49.33 37.1199L49.34 37.1099Z" fill="#222B57"/>
<path d="M21.18 37.1099C24.11 37.0699 26.68 36.0799 28.94 34.2299C29.74 33.5699 30 32.9099 29.65 31.8399C28.08 27.0099 25.07 23.6099 20.06 22.3599C16.08 21.3699 12.19 22.1099 8.39995 23.5099C5.49995 24.5799 5.47995 24.5699 6.97995 27.2299C9.06995 30.9399 11.58 34.2499 15.65 36.0299C17.42 36.7999 19.25 37.1899 21.19 37.1199L21.18 37.1099Z" fill="#222B57"/>
</g>
<mask id="mask1_15_14" style="mask-type:luminance" maskUnits="userSpaceOnUse" x="12" y="12" width="47" height="47">
<path d="M35.26 58.49C48.0896 58.49 58.49 48.0896 58.49 35.26C58.49 22.4305 48.0896 12.03 35.26 12.03C22.4305 12.03 12.03 22.4305 12.03 35.26C12.03 48.0896 22.4305 58.49 35.26 58.49Z" fill="white"/>
</mask>
<g mask="url(#mask1_15_14)">
<path d="M40.75 24.81C40.78 28.1 38.74 31.23 35.76 32.54C35.3 32.74 34.97 32.62 34.56 32.43C30.39 30.42 28.59 25.03 30.6 20.44C31.52 18.34 32.9 16.56 34.52 14.95C34.85 14.62 35.15 14.23 35.68 14.73C38.57 17.49 40.74 20.61 40.75 24.81Z" fill="#222B57"/>
<path d="M40.75 24.81C40.78 28.1 38.74 31.23 35.76 32.54C35.3 32.74 34.97 32.62 34.56 32.43C30.39 30.42 28.59 25.03 30.6 20.44C31.52 18.34 32.9 16.56 34.52 14.95C34.85 14.62 35.15 14.23 35.68 14.73C38.57 17.49 40.74 20.61 40.75 24.81Z" fill="#222B57"/>
<path d="M45.67 42.5201C43.51 42.4901 41.6 41.7601 39.93 40.3901C39.34 39.9001 39.15 39.4201 39.41 38.6201C40.57 35.0501 42.79 32.5301 46.5 31.6101C49.44 30.8801 52.32 31.4201 55.12 32.4601C57.26 33.2501 57.28 33.2501 56.17 35.2101C54.62 37.9601 52.77 40.4001 49.76 41.7201C48.45 42.2901 47.1 42.5801 45.67 42.5201Z" fill="#222B57"/>
<path d="M49.1301 25.32C49.0501 28.81 46.18 31.35 42.98 30.88C41.93 30.73 41.6301 30.17 41.5801 29.27C41.4101 26.48 43.71 23.9 46.59 23.69C46.89 23.67 47.18 23.67 47.48 23.67C49.04 23.67 49.17 23.79 49.14 25.32H49.1301Z" fill="#79B0DF"/>
<path d="M24.86 42.5201C27.02 42.4901 28.93 41.7601 30.6 40.3901C31.19 39.9001 31.38 39.4201 31.12 38.6201C29.96 35.0501 27.74 32.5301 24.03 31.6101C21.09 30.8801 18.21 31.4201 15.41 32.4601C13.27 33.2501 13.25 33.2501 14.36 35.2101C15.91 37.9601 17.76 40.4001 20.77 41.7201C22.08 42.2901 23.43 42.5801 24.86 42.5201Z" fill="#222B57"/>
<path d="M21.4001 25.32C21.4801 28.81 24.3501 31.35 27.5501 30.88C28.6001 30.73 28.9001 30.17 28.9501 29.27C29.1201 26.48 26.8201 23.9 23.9401 23.69C23.6401 23.67 23.3501 23.67 23.0501 23.67C21.4901 23.67 21.3601 23.79 21.3901 25.32H21.4001Z" fill="#79B0DF"/>
<path d="M36.4801 32.88C36.2601 33 36.0301 33.12 35.8001 33.22C35.3001 33.44 34.9501 33.31 34.5101 33.1C34.3701 33.03 34.2201 32.96 34.0901 32.88H34.0601C33.7401 41.1 28.6201 42.57 28.6201 42.57C28.6201 42.57 31.7901 52.29 35.0301 59.06V46.9C33.9901 46.78 33.1801 45.9 33.1801 44.83C33.1801 43.67 34.1201 42.73 35.2801 42.73C36.4401 42.73 37.3801 43.67 37.3801 44.83C37.3801 45.91 36.5701 46.78 35.5201 46.9V59.07C38.7601 52.3 41.9301 42.58 41.9301 42.58C41.9301 42.58 36.8101 41.11 36.4901 32.89L36.4801 32.88Z" fill="#222B57"/>
</g>
<path d="M35.26 58.91C22.22 58.91 11.61 48.3 11.61 35.26C11.61 22.22 22.22 11.61 35.26 11.61C48.3 11.61 58.91 22.22 58.91 35.26C58.91 48.3 48.3 58.91 35.26 58.91ZM35.26 12.46C22.69 12.46 12.46 22.69 12.46 35.27C12.46 47.85 22.69 58.07 35.26 58.07C47.83 58.07 58.07 47.84 58.07 35.27C58.07 22.7 47.84 12.46 35.26 12.46Z" fill="#222B57"/>
<path d="M63.93 34.72L64.43 36.26C64.45 36.32 64.51 36.37 64.58 36.37H66.2C66.35 36.37 66.41 36.56 66.29 36.65L64.98 37.6C64.93 37.64 64.9 37.71 64.92 37.77L65.42 39.31C65.47 39.45 65.3 39.57 65.18 39.48L63.87 38.53C63.82 38.49 63.74 38.49 63.69 38.53L62.38 39.48C62.26 39.57 62.1 39.45 62.14 39.31L62.64 37.77C62.66 37.71 62.64 37.64 62.58 37.6L61.27 36.65C61.15 36.56 61.21 36.37 61.36 36.37H62.98C63.05 36.37 63.11 36.33 63.13 36.26L63.63 34.72C63.68 34.58 63.88 34.58 63.92 34.72H63.93Z" fill="#222B57"/>
<path d="M6.88997 34.72L7.38997 36.26C7.40997 36.32 7.46997 36.37 7.53997 36.37H9.15997C9.30997 36.37 9.36997 36.56 9.24997 36.65L7.93997 37.6C7.88997 37.64 7.85997 37.71 7.87997 37.77L8.37997 39.31C8.42997 39.45 8.25997 39.57 8.13997 39.48L6.82997 38.53C6.77997 38.49 6.69997 38.49 6.64997 38.53L5.33997 39.48C5.21997 39.57 5.05997 39.45 5.09997 39.31L5.59997 37.77C5.61997 37.71 5.59997 37.64 5.53997 37.6L4.22997 36.65C4.10997 36.56 4.16997 36.37 4.31997 36.37H5.93997C6.00997 36.37 6.06997 36.33 6.08997 36.26L6.58997 34.72C6.63997 34.58 6.83997 34.58 6.87997 34.72H6.88997Z" fill="#222B57"/>
<path d="M86.23 67.27H85.7L88.68 59.01H89.26L92.24 67.27H91.71L88.99 59.66H88.95L86.23 67.27ZM86.98 64.16H90.95V64.63H86.98V64.16Z" fill="#222B57"/>
<path d="M94.25 63.25V67.27H93.76V61.07H94.24V62.05H94.29C94.44 61.73 94.67 61.47 94.99 61.28C95.31 61.09 95.69 60.99 96.13 60.99C96.55 60.99 96.91 61.08 97.23 61.26C97.55 61.44 97.79 61.69 97.97 62.02C98.15 62.35 98.24 62.74 98.24 63.19V67.28H97.75V63.21C97.75 62.68 97.59 62.26 97.28 61.94C96.97 61.62 96.55 61.46 96.04 61.46C95.69 61.46 95.39 61.54 95.12 61.69C94.85 61.84 94.64 62.05 94.49 62.32C94.34 62.59 94.26 62.91 94.26 63.27L94.25 63.25Z" fill="#222B57"/>
<path d="M104.47 59.01V67.27H103.97V59.01H104.47Z" fill="#222B57"/>
<path d="M107.34 63.25V67.27H106.85V61.07H107.33V62.05H107.38C107.53 61.73 107.76 61.47 108.08 61.28C108.4 61.09 108.78 60.99 109.22 60.99C109.64 60.99 110 61.08 110.32 61.26C110.64 61.44 110.88 61.69 111.06 62.02C111.24 62.35 111.33 62.74 111.33 63.19V67.28H110.84V63.21C110.84 62.68 110.68 62.26 110.37 61.94C110.06 61.62 109.64 61.46 109.13 61.46C108.78 61.46 108.48 61.54 108.21 61.69C107.94 61.84 107.73 62.05 107.58 62.32C107.43 62.59 107.35 62.91 107.35 63.27L107.34 63.25Z" fill="#222B57"/>
<path d="M117.46 62.41L117 62.53C116.93 62.3 116.82 62.11 116.69 61.94C116.56 61.78 116.39 61.65 116.18 61.56C115.97 61.47 115.73 61.42 115.45 61.42C115 61.42 114.62 61.53 114.33 61.76C114.04 61.99 113.9 62.28 113.9 62.64C113.9 62.94 114 63.18 114.19 63.37C114.39 63.56 114.69 63.71 115.09 63.81L116.04 64.05C116.53 64.17 116.9 64.37 117.15 64.64C117.4 64.91 117.52 65.25 117.52 65.65C117.52 65.99 117.43 66.29 117.24 66.56C117.05 66.82 116.8 67.03 116.47 67.18C116.14 67.33 115.76 67.4 115.33 67.4C114.75 67.4 114.28 67.26 113.91 66.99C113.54 66.72 113.3 66.33 113.2 65.83L113.67 65.71C113.76 66.11 113.94 66.42 114.22 66.63C114.5 66.84 114.87 66.95 115.33 66.95C115.84 66.95 116.24 66.83 116.55 66.59C116.86 66.35 117.02 66.05 117.02 65.67C117.02 65.38 116.93 65.14 116.75 64.95C116.57 64.76 116.29 64.61 115.92 64.52L114.93 64.28C114.42 64.16 114.04 63.96 113.79 63.68C113.54 63.41 113.41 63.07 113.41 62.67C113.41 62.34 113.5 62.04 113.67 61.79C113.84 61.54 114.08 61.34 114.39 61.2C114.7 61.06 115.05 60.99 115.44 60.99C115.96 60.99 116.39 61.11 116.72 61.36C117.05 61.61 117.29 61.96 117.44 62.42L117.46 62.41Z" fill="#222B57"/>
<path d="M121.58 61.07V61.51H118.87V61.07H121.58ZM119.79 59.59H120.28V65.81C120.28 66.06 120.33 66.27 120.43 66.43C120.53 66.59 120.66 66.71 120.82 66.79C120.98 66.87 121.15 66.91 121.33 66.91C121.42 66.91 121.5 66.91 121.56 66.89C121.63 66.88 121.69 66.86 121.75 66.84L121.87 67.29C121.79 67.32 121.71 67.34 121.62 67.36C121.53 67.38 121.42 67.39 121.3 67.39C121.04 67.39 120.8 67.33 120.57 67.22C120.34 67.1 120.15 66.94 120.01 66.72C119.87 66.5 119.8 66.23 119.8 65.92V59.61L119.79 59.59Z" fill="#222B57"/>
<path d="M123.84 59.98C123.73 59.98 123.64 59.94 123.56 59.87C123.48 59.79 123.44 59.7 123.44 59.6C123.44 59.5 123.48 59.4 123.56 59.33C123.64 59.25 123.73 59.22 123.84 59.22C123.95 59.22 124.04 59.26 124.12 59.33C124.2 59.4 124.24 59.5 124.24 59.6C124.24 59.7 124.2 59.8 124.12 59.87C124.04 59.95 123.95 59.98 123.84 59.98ZM123.59 67.27V61.07H124.08V67.27H123.59Z" fill="#222B57"/>
<path d="M128.49 61.07V61.51H125.78V61.07H128.49ZM126.7 59.59H127.19V65.81C127.19 66.06 127.24 66.27 127.34 66.43C127.44 66.59 127.57 66.71 127.73 66.79C127.89 66.87 128.06 66.91 128.24 66.91C128.33 66.91 128.41 66.91 128.47 66.89C128.54 66.88 128.6 66.86 128.66 66.84L128.78 67.29C128.7 67.32 128.62 67.34 128.53 67.36C128.44 67.38 128.33 67.39 128.21 67.39C127.95 67.39 127.71 67.33 127.48 67.22C127.25 67.1 127.06 66.94 126.92 66.72C126.78 66.5 126.71 66.23 126.71 65.92V59.61L126.7 59.59Z" fill="#222B57"/>
<path d="M134.45 65.0701V61.0701H134.94V67.2701H134.45V66.2701H134.41C134.26 66.5901 134.03 66.8501 133.71 67.0501C133.39 67.2501 133 67.3501 132.56 67.3501C132.15 67.3501 131.8 67.2601 131.48 67.0801C131.16 66.9001 130.92 66.6501 130.75 66.3201C130.58 65.9901 130.48 65.6001 130.48 65.1501V61.0601H130.97V65.1301C130.97 65.6501 131.13 66.0601 131.44 66.3801C131.75 66.7001 132.16 66.8601 132.66 66.8601C132.98 66.8601 133.28 66.7901 133.55 66.6401C133.82 66.5001 134.04 66.2901 134.2 66.0201C134.36 65.7501 134.45 65.4301 134.45 65.0601V65.0701Z" fill="#222B57"/>
<path d="M139.33 61.07V61.51H136.62V61.07H139.33ZM137.54 59.59H138.03V65.81C138.03 66.06 138.08 66.27 138.18 66.43C138.28 66.59 138.41 66.71 138.57 66.79C138.73 66.87 138.9 66.91 139.08 66.91C139.17 66.91 139.25 66.91 139.31 66.89C139.38 66.88 139.44 66.86 139.5 66.84L139.62 67.29C139.54 67.32 139.46 67.34 139.37 67.36C139.28 67.38 139.17 67.39 139.05 67.39C138.79 67.39 138.55 67.33 138.32 67.22C138.09 67.1 137.9 66.94 137.76 66.72C137.62 66.5 137.55 66.23 137.55 65.92V59.61L137.54 59.59Z" fill="#222B57"/>
<path d="M143.66 67.4C143.1 67.4 142.61 67.26 142.2 66.98C141.79 66.7 141.47 66.32 141.24 65.84C141.01 65.36 140.9 64.81 140.9 64.19C140.9 63.57 141.01 63.02 141.24 62.54C141.47 62.06 141.78 61.67 142.18 61.4C142.58 61.13 143.03 60.98 143.54 60.98C143.89 60.98 144.22 61.05 144.53 61.19C144.84 61.33 145.11 61.53 145.35 61.79C145.59 62.05 145.78 62.37 145.91 62.73C146.05 63.1 146.11 63.51 146.11 63.97V64.28H141.21V63.83H145.62C145.62 63.38 145.53 62.98 145.35 62.62C145.17 62.26 144.92 61.97 144.6 61.76C144.29 61.55 143.93 61.44 143.54 61.44C143.15 61.44 142.76 61.56 142.44 61.79C142.12 62.02 141.86 62.33 141.68 62.72C141.5 63.11 141.4 63.55 141.39 64.03V64.23C141.39 64.75 141.48 65.21 141.66 65.62C141.84 66.03 142.1 66.35 142.44 66.59C142.78 66.83 143.19 66.95 143.66 66.95C144 66.95 144.29 66.89 144.53 66.78C144.77 66.66 144.97 66.53 145.12 66.36C145.27 66.2 145.39 66.04 145.47 65.88L145.92 66.06C145.83 66.27 145.68 66.47 145.48 66.68C145.28 66.89 145.03 67.06 144.73 67.19C144.43 67.33 144.07 67.4 143.66 67.4Z" fill="#222B57"/>
<path d="M153.63 67.4C153.12 67.4 152.66 67.26 152.27 66.99C151.87 66.71 151.56 66.33 151.33 65.85C151.1 65.37 150.99 64.82 150.99 64.2C150.99 63.58 151.1 63.03 151.33 62.54C151.56 62.05 151.87 61.68 152.27 61.4C152.67 61.12 153.12 60.98 153.63 60.98C154.14 60.98 154.6 61.12 154.99 61.4C155.38 61.68 155.7 62.06 155.93 62.54C156.16 63.02 156.27 63.58 156.27 64.19C156.27 64.8 156.16 65.36 155.93 65.84C155.7 66.32 155.39 66.7 154.99 66.98C154.59 67.26 154.14 67.39 153.63 67.39V67.4ZM153.63 66.94C154.06 66.94 154.44 66.82 154.77 66.57C155.09 66.33 155.35 65.99 155.52 65.58C155.69 65.17 155.79 64.7 155.79 64.19C155.79 63.68 155.7 63.22 155.52 62.8C155.34 62.39 155.09 62.05 154.77 61.81C154.45 61.56 154.07 61.44 153.64 61.44C153.21 61.44 152.83 61.56 152.51 61.81C152.19 62.06 151.94 62.39 151.76 62.8C151.58 63.22 151.49 63.68 151.49 64.19C151.49 64.7 151.58 65.16 151.76 65.58C151.94 66 152.19 66.33 152.52 66.57C152.84 66.82 153.22 66.94 153.66 66.94H153.63Z" fill="#222B57"/>
<path d="M160.48 61.07V61.51H157.73V61.07H160.48ZM158.63 67.27V60.11C158.63 59.8 158.7 59.53 158.84 59.31C158.98 59.09 159.17 58.92 159.4 58.81C159.63 58.69 159.88 58.64 160.15 58.64C160.29 58.64 160.41 58.65 160.52 58.67C160.62 58.69 160.71 58.72 160.78 58.75L160.63 59.19C160.57 59.17 160.5 59.15 160.43 59.13C160.36 59.11 160.27 59.11 160.18 59.11C159.87 59.11 159.61 59.21 159.41 59.4C159.21 59.59 159.11 59.86 159.11 60.2V67.28H158.62L158.63 67.27Z" fill="#222B57"/>
<path d="M164.86 59.01H165.46L168.06 63H168.12L170.72 59.01H171.32L168.35 63.52V67.27H167.84V63.52L164.87 59.01H164.86Z" fill="#222B57"/>
<path d="M174.28 67.4C173.77 67.4 173.31 67.26 172.92 66.99C172.52 66.71 172.21 66.33 171.98 65.85C171.75 65.37 171.64 64.82 171.64 64.2C171.64 63.58 171.75 63.03 171.98 62.54C172.21 62.05 172.52 61.68 172.92 61.4C173.32 61.12 173.77 60.98 174.28 60.98C174.79 60.98 175.25 61.12 175.64 61.4C176.03 61.68 176.35 62.06 176.58 62.54C176.81 63.02 176.92 63.58 176.92 64.19C176.92 64.8 176.81 65.36 176.58 65.84C176.35 66.32 176.04 66.7 175.64 66.98C175.24 67.26 174.79 67.39 174.28 67.39V67.4ZM174.28 66.94C174.71 66.94 175.09 66.82 175.42 66.57C175.74 66.33 176 65.99 176.17 65.58C176.34 65.17 176.44 64.7 176.44 64.19C176.44 63.68 176.35 63.22 176.17 62.8C175.99 62.39 175.74 62.05 175.42 61.81C175.1 61.56 174.72 61.44 174.29 61.44C173.86 61.44 173.48 61.56 173.16 61.81C172.84 62.06 172.59 62.39 172.41 62.8C172.23 63.22 172.14 63.68 172.14 64.19C172.14 64.7 172.23 65.16 172.41 65.58C172.59 66 172.84 66.33 173.17 66.57C173.49 66.82 173.87 66.94 174.31 66.94H174.28Z" fill="#222B57"/>
<path d="M182.75 65.0701V61.0701H183.24V67.2701H182.75V66.2701H182.71C182.56 66.5901 182.33 66.8501 182.01 67.0501C181.69 67.2501 181.3 67.3501 180.86 67.3501C180.45 67.3501 180.1 67.2601 179.78 67.0801C179.46 66.9001 179.22 66.6501 179.05 66.3201C178.88 65.9901 178.78 65.6001 178.78 65.1501V61.0601H179.27V65.1301C179.27 65.6501 179.43 66.0601 179.74 66.3801C180.05 66.7001 180.46 66.8601 180.96 66.8601C181.28 66.8601 181.58 66.7901 181.85 66.6401C182.12 66.5001 182.34 66.2901 182.5 66.0201C182.66 65.7501 182.75 65.4301 182.75 65.0601V65.0701Z" fill="#222B57"/>
<path d="M185.44 67.27V61.07H185.92V62.04H185.96C186.09 61.72 186.32 61.47 186.64 61.28C186.96 61.09 187.32 60.99 187.73 60.99H187.86C187.86 60.99 187.94 60.99 187.98 60.99V61.49C187.98 61.49 187.91 61.49 187.86 61.48C187.82 61.48 187.76 61.48 187.7 61.48C187.36 61.48 187.05 61.55 186.78 61.7C186.51 61.85 186.3 62.05 186.15 62.31C186 62.57 185.92 62.87 185.92 63.2V67.28H185.43L185.44 67.27Z" fill="#222B57"/>
<path d="M193 67.27V59.01H195.55C196.07 59.01 196.52 59.12 196.9 59.33C197.27 59.55 197.56 59.84 197.76 60.21C197.96 60.58 198.06 61.01 198.06 61.49C198.06 61.97 197.96 62.39 197.76 62.76C197.56 63.13 197.27 63.43 196.9 63.65C196.52 63.87 196.08 63.97 195.55 63.97H193.36V63.5H195.54C195.96 63.5 196.33 63.41 196.63 63.24C196.93 63.07 197.16 62.83 197.32 62.53C197.48 62.23 197.56 61.88 197.56 61.49C197.56 61.1 197.48 60.75 197.32 60.44C197.16 60.13 196.93 59.9 196.62 59.73C196.32 59.56 195.95 59.47 195.53 59.47H193.5V67.26H193V67.27Z" fill="#222B57"/>
<path d="M201.63 67.4C201.27 67.4 200.95 67.33 200.65 67.19C200.35 67.05 200.11 66.84 199.94 66.57C199.76 66.3 199.67 65.96 199.67 65.57C199.67 65.31 199.72 65.09 199.81 64.89C199.9 64.69 200.04 64.52 200.23 64.38C200.42 64.24 200.67 64.12 200.96 64.03C201.25 63.94 201.62 63.87 202.03 63.81C202.34 63.77 202.63 63.74 202.87 63.7C203.12 63.66 203.31 63.61 203.45 63.53C203.59 63.45 203.66 63.33 203.66 63.17V62.91C203.66 62.46 203.52 62.1 203.23 61.83C202.94 61.56 202.55 61.43 202.05 61.43C201.61 61.43 201.23 61.53 200.93 61.72C200.63 61.91 200.42 62.17 200.29 62.47L199.82 62.3C199.94 62 200.11 61.76 200.33 61.56C200.56 61.36 200.81 61.22 201.11 61.12C201.4 61.02 201.71 60.97 202.03 60.97C202.31 60.97 202.57 61.01 202.82 61.09C203.07 61.17 203.3 61.29 203.49 61.44C203.69 61.6 203.84 61.8 203.96 62.05C204.08 62.3 204.13 62.59 204.13 62.93V67.26H203.64V66.14H203.6C203.49 66.37 203.35 66.58 203.16 66.77C202.97 66.96 202.75 67.11 202.49 67.22C202.23 67.33 201.93 67.39 201.6 67.39L201.63 67.4ZM201.68 66.95C202.07 66.95 202.41 66.85 202.71 66.67C203.01 66.48 203.24 66.22 203.41 65.89C203.58 65.56 203.66 65.18 203.66 64.77V63.86C203.6 63.91 203.51 63.96 203.39 64C203.27 64.04 203.14 64.08 202.99 64.11C202.84 64.14 202.69 64.17 202.53 64.19C202.37 64.21 202.22 64.23 202.06 64.25C201.61 64.3 201.24 64.39 200.96 64.5C200.68 64.61 200.47 64.76 200.34 64.94C200.21 65.12 200.14 65.34 200.14 65.59C200.14 66.01 200.29 66.35 200.58 66.59C200.87 66.83 201.23 66.96 201.67 66.96L201.68 66.95Z" fill="#222B57"/>
<path d="M208.57 61.07V61.51H205.86V61.07H208.57ZM206.78 59.59H207.27V65.81C207.27 66.06 207.32 66.27 207.42 66.43C207.52 66.59 207.65 66.71 207.81 66.79C207.97 66.87 208.14 66.91 208.32 66.91C208.41 66.91 208.49 66.91 208.55 66.89C208.62 66.88 208.68 66.86 208.74 66.84L208.86 67.29C208.78 67.32 208.7 67.34 208.61 67.36C208.52 67.38 208.41 67.39 208.29 67.39C208.03 67.39 207.79 67.33 207.56 67.22C207.33 67.1 207.14 66.94 207 66.72C206.86 66.5 206.79 66.23 206.79 65.92V59.61L206.78 59.59Z" fill="#222B57"/>
<path d="M211.17 63.25V67.27H210.68V59.01H211.17V62.05H211.22C211.37 61.73 211.6 61.47 211.92 61.28C212.24 61.09 212.62 60.99 213.07 60.99C213.49 60.99 213.85 61.08 214.17 61.25C214.49 61.42 214.74 61.68 214.91 62C215.08 62.32 215.18 62.72 215.18 63.17V67.26H214.69V63.19C214.69 62.66 214.53 62.24 214.22 61.92C213.91 61.6 213.49 61.44 212.97 61.44C212.62 61.44 212.31 61.52 212.04 61.67C211.77 61.82 211.56 62.03 211.4 62.3C211.24 62.57 211.17 62.89 211.17 63.25Z" fill="#222B57"/>
<path d="M218.73 67.2701L216.87 61.0701H217.39L218.99 66.5401H219.03L220.63 61.0701H221.14L222.74 66.5401H222.78L224.38 61.0701H224.9L223.04 67.2701H222.49L220.91 61.8801H220.86L219.28 67.2701H218.73Z" fill="#222B57"/>
<path d="M228.23 67.4C227.87 67.4 227.55 67.33 227.25 67.19C226.95 67.05 226.71 66.84 226.54 66.57C226.36 66.3 226.27 65.96 226.27 65.57C226.27 65.31 226.32 65.09 226.41 64.89C226.5 64.69 226.64 64.52 226.83 64.38C227.02 64.24 227.27 64.12 227.56 64.03C227.85 63.94 228.22 63.87 228.63 63.81C228.94 63.77 229.23 63.74 229.47 63.7C229.72 63.66 229.91 63.61 230.05 63.53C230.19 63.45 230.26 63.33 230.26 63.17V62.91C230.26 62.46 230.12 62.1 229.83 61.83C229.54 61.56 229.15 61.43 228.65 61.43C228.21 61.43 227.83 61.53 227.53 61.72C227.23 61.91 227.02 62.17 226.89 62.47L226.42 62.3C226.54 62 226.71 61.76 226.93 61.56C227.16 61.36 227.41 61.22 227.71 61.12C228 61.02 228.31 60.97 228.63 60.97C228.91 60.97 229.17 61.01 229.42 61.09C229.67 61.17 229.9 61.29 230.09 61.44C230.29 61.6 230.44 61.8 230.56 62.05C230.68 62.3 230.73 62.59 230.73 62.93V67.26H230.24V66.14H230.2C230.09 66.37 229.95 66.58 229.76 66.77C229.57 66.96 229.35 67.11 229.09 67.22C228.83 67.33 228.53 67.39 228.2 67.39L228.23 67.4ZM228.28 66.95C228.67 66.95 229.01 66.85 229.31 66.67C229.61 66.48 229.84 66.22 230.01 65.89C230.18 65.56 230.26 65.18 230.26 64.77V63.86C230.2 63.91 230.11 63.96 229.99 64C229.87 64.04 229.74 64.08 229.59 64.11C229.44 64.14 229.29 64.17 229.13 64.19C228.97 64.21 228.82 64.23 228.66 64.25C228.21 64.3 227.84 64.39 227.56 64.5C227.28 64.61 227.07 64.76 226.94 64.94C226.81 65.12 226.74 65.34 226.74 65.59C226.74 66.01 226.89 66.35 227.18 66.59C227.47 66.83 227.83 66.96 228.27 66.96L228.28 66.95Z" fill="#222B57"/>
<path d="M233.15 69.5901C233.03 69.5901 232.9 69.5801 232.78 69.5501C232.66 69.5201 232.55 69.4901 232.45 69.4501L232.6 69.0201C232.85 69.1201 233.08 69.1501 233.29 69.1301C233.5 69.1001 233.68 69.0101 233.84 68.8501C234 68.6901 234.13 68.4501 234.24 68.1401L234.52 67.3601L232.25 61.0801H232.78L234.75 66.6401H234.79L236.76 61.0801H237.29L234.68 68.3301C234.58 68.6101 234.46 68.8401 234.3 69.0301C234.15 69.2201 233.98 69.3601 233.79 69.4601C233.6 69.5601 233.39 69.6001 233.16 69.6001L233.15 69.5901Z" fill="#222B57"/>
<path d="M244.53 61.07V61.51H241.82V61.07H244.53ZM242.74 59.59H243.23V65.81C243.23 66.06 243.28 66.27 243.38 66.43C243.48 66.59 243.61 66.71 243.77 66.79C243.93 66.87 244.1 66.91 244.28 66.91C244.37 66.91 244.45 66.91 244.51 66.89C244.58 66.88 244.64 66.86 244.7 66.84L244.82 67.29C244.74 67.32 244.66 67.34 244.57 67.36C244.48 67.38 244.37 67.39 244.25 67.39C243.99 67.39 243.75 67.33 243.52 67.22C243.29 67.1 243.1 66.94 242.96 66.72C242.82 66.5 242.75 66.23 242.75 65.92V59.61L242.74 59.59Z" fill="#222B57"/>
<path d="M248.75 67.4C248.24 67.4 247.78 67.26 247.39 66.99C246.99 66.71 246.68 66.33 246.45 65.85C246.22 65.37 246.11 64.82 246.11 64.2C246.11 63.58 246.22 63.03 246.45 62.54C246.68 62.05 246.99 61.68 247.39 61.4C247.79 61.12 248.24 60.98 248.75 60.98C249.26 60.98 249.72 61.12 250.11 61.4C250.5 61.68 250.82 62.06 251.05 62.54C251.28 63.02 251.39 63.58 251.39 64.19C251.39 64.8 251.28 65.36 251.05 65.84C250.82 66.32 250.51 66.7 250.11 66.98C249.71 67.26 249.26 67.39 248.75 67.39V67.4ZM248.75 66.94C249.18 66.94 249.56 66.82 249.89 66.57C250.21 66.33 250.47 65.99 250.64 65.58C250.81 65.17 250.91 64.7 250.91 64.19C250.91 63.68 250.82 63.22 250.64 62.8C250.46 62.39 250.21 62.05 249.89 61.81C249.57 61.56 249.19 61.44 248.76 61.44C248.33 61.44 247.95 61.56 247.63 61.81C247.31 62.06 247.06 62.39 246.88 62.8C246.7 63.22 246.61 63.68 246.61 64.19C246.61 64.7 246.7 65.16 246.88 65.58C247.06 66 247.31 66.33 247.64 66.57C247.96 66.82 248.34 66.94 248.78 66.94H248.75Z" fill="#222B57"/>
<path d="M261.23 61.07C261.19 60.56 260.98 60.14 260.6 59.82C260.23 59.5 259.74 59.34 259.15 59.34C258.75 59.34 258.39 59.41 258.08 59.56C257.77 59.71 257.52 59.91 257.35 60.17C257.17 60.42 257.08 60.72 257.08 61.05C257.08 61.26 257.12 61.45 257.2 61.62C257.28 61.79 257.4 61.94 257.55 62.08C257.7 62.21 257.88 62.33 258.09 62.43C258.3 62.53 258.53 62.62 258.78 62.69L259.68 62.96C259.99 63.05 260.28 63.16 260.54 63.29C260.8 63.41 261.03 63.56 261.23 63.73C261.43 63.9 261.58 64.1 261.69 64.33C261.8 64.56 261.85 64.82 261.85 65.12C261.85 65.56 261.74 65.95 261.51 66.29C261.28 66.63 260.97 66.91 260.55 67.1C260.14 67.3 259.65 67.4 259.09 67.4C258.53 67.4 258.09 67.31 257.7 67.13C257.31 66.95 256.99 66.7 256.77 66.38C256.54 66.06 256.41 65.69 256.38 65.27H256.9C256.93 65.61 257.04 65.91 257.23 66.16C257.42 66.41 257.68 66.6 258 66.74C258.32 66.87 258.69 66.94 259.1 66.94C259.54 66.94 259.93 66.86 260.27 66.71C260.61 66.56 260.87 66.35 261.06 66.07C261.25 65.8 261.35 65.48 261.35 65.12C261.35 64.83 261.28 64.58 261.14 64.37C261 64.16 260.8 63.98 260.53 63.83C260.26 63.68 259.93 63.54 259.54 63.43L258.58 63.14C257.93 62.94 257.44 62.68 257.1 62.34C256.76 62 256.59 61.58 256.59 61.07C256.59 60.65 256.7 60.27 256.93 59.94C257.16 59.61 257.46 59.35 257.85 59.16C258.24 58.97 258.68 58.88 259.17 58.88C259.66 58.88 260.1 58.98 260.47 59.16C260.85 59.35 261.15 59.61 261.36 59.94C261.58 60.27 261.7 60.65 261.73 61.07H261.23Z" fill="#222B57"/>
<path d="M267.78 65.0701V61.0701H268.27V67.2701H267.78V66.2701H267.74C267.59 66.5901 267.36 66.8501 267.04 67.0501C266.72 67.2501 266.33 67.3501 265.89 67.3501C265.48 67.3501 265.13 67.2601 264.81 67.0801C264.49 66.9001 264.25 66.6501 264.08 66.3201C263.91 65.9901 263.81 65.6001 263.81 65.1501V61.0601H264.3V65.1301C264.3 65.6501 264.46 66.0601 264.77 66.3801C265.08 66.7001 265.49 66.8601 265.99 66.8601C266.31 66.8601 266.61 66.7901 266.88 66.6401C267.15 66.5001 267.37 66.2901 267.53 66.0201C267.69 65.7501 267.78 65.4301 267.78 65.0601V65.0701Z" fill="#222B57"/>
<path d="M272.8 67.4C272.27 67.4 271.81 67.26 271.41 66.98C271.01 66.7 270.7 66.32 270.47 65.84C270.25 65.36 270.13 64.81 270.13 64.19C270.13 63.57 270.24 63.03 270.47 62.54C270.7 62.06 271.01 61.67 271.41 61.4C271.81 61.13 272.27 60.98 272.79 60.98C273.18 60.98 273.54 61.06 273.87 61.22C274.19 61.38 274.46 61.61 274.68 61.89C274.9 62.17 275.03 62.51 275.09 62.89H274.59C274.51 62.47 274.31 62.12 273.99 61.85C273.67 61.58 273.27 61.44 272.81 61.44C272.39 61.44 272.02 61.56 271.69 61.79C271.36 62.02 271.1 62.35 270.91 62.76C270.72 63.17 270.63 63.65 270.63 64.18C270.63 64.71 270.72 65.17 270.9 65.59C271.08 66 271.34 66.33 271.67 66.58C272 66.82 272.38 66.94 272.81 66.94C273.11 66.94 273.39 66.88 273.64 66.76C273.89 66.64 274.1 66.47 274.27 66.24C274.44 66.02 274.55 65.76 274.6 65.46H275.1C275.04 65.84 274.91 66.18 274.7 66.47C274.49 66.76 274.22 66.99 273.9 67.15C273.57 67.31 273.21 67.4 272.81 67.4H272.8Z" fill="#222B57"/>
<path d="M279.26 67.4C278.73 67.4 278.27 67.26 277.87 66.98C277.47 66.7 277.16 66.32 276.93 65.84C276.71 65.36 276.59 64.81 276.59 64.19C276.59 63.57 276.7 63.03 276.93 62.54C277.16 62.06 277.47 61.67 277.87 61.4C278.27 61.13 278.73 60.98 279.25 60.98C279.64 60.98 280 61.06 280.33 61.22C280.65 61.38 280.92 61.61 281.14 61.89C281.36 62.17 281.49 62.51 281.55 62.89H281.05C280.97 62.47 280.77 62.12 280.45 61.85C280.13 61.58 279.73 61.44 279.27 61.44C278.85 61.44 278.48 61.56 278.15 61.79C277.82 62.02 277.56 62.35 277.37 62.76C277.18 63.17 277.09 63.65 277.09 64.18C277.09 64.71 277.18 65.17 277.36 65.59C277.54 66 277.8 66.33 278.13 66.58C278.46 66.82 278.84 66.94 279.27 66.94C279.57 66.94 279.85 66.88 280.1 66.76C280.35 66.64 280.56 66.47 280.73 66.24C280.9 66.02 281.01 65.76 281.06 65.46H281.56C281.5 65.84 281.37 66.18 281.16 66.47C280.95 66.76 280.68 66.99 280.36 67.15C280.03 67.31 279.67 67.4 279.27 67.4H279.26Z" fill="#222B57"/>
<path d="M285.81 67.4C285.25 67.4 284.76 67.26 284.35 66.98C283.94 66.7 283.62 66.32 283.39 65.84C283.16 65.36 283.05 64.81 283.05 64.19C283.05 63.57 283.16 63.02 283.39 62.54C283.62 62.06 283.93 61.67 284.33 61.4C284.73 61.13 285.18 60.98 285.69 60.98C286.04 60.98 286.37 61.05 286.68 61.19C286.99 61.33 287.26 61.53 287.5 61.79C287.74 62.05 287.93 62.37 288.06 62.73C288.2 63.1 288.26 63.51 288.26 63.97V64.28H283.36V63.83H287.77C287.77 63.38 287.68 62.98 287.5 62.62C287.32 62.26 287.07 61.97 286.75 61.76C286.44 61.55 286.08 61.44 285.69 61.44C285.3 61.44 284.91 61.56 284.59 61.79C284.27 62.02 284.01 62.33 283.83 62.72C283.65 63.11 283.55 63.55 283.54 64.03V64.23C283.54 64.75 283.63 65.21 283.81 65.62C283.99 66.03 284.25 66.35 284.59 66.59C284.93 66.83 285.34 66.95 285.81 66.95C286.15 66.95 286.44 66.89 286.68 66.78C286.92 66.66 287.12 66.53 287.27 66.36C287.42 66.2 287.54 66.04 287.62 65.88L288.07 66.06C287.98 66.27 287.83 66.47 287.63 66.68C287.43 66.89 287.18 67.06 286.88 67.19C286.58 67.33 286.22 67.4 285.81 67.4Z" fill="#222B57"/>
<path d="M294.06 62.41L293.6 62.53C293.53 62.3 293.42 62.11 293.29 61.94C293.16 61.78 292.99 61.65 292.78 61.56C292.57 61.47 292.33 61.42 292.05 61.42C291.6 61.42 291.22 61.53 290.93 61.76C290.64 61.99 290.5 62.28 290.5 62.64C290.5 62.94 290.6 63.18 290.79 63.37C290.99 63.56 291.29 63.71 291.69 63.81L292.64 64.05C293.13 64.17 293.5 64.37 293.75 64.64C294 64.91 294.12 65.25 294.12 65.65C294.12 65.99 294.03 66.29 293.84 66.56C293.65 66.82 293.4 67.03 293.07 67.18C292.74 67.33 292.36 67.4 291.93 67.4C291.35 67.4 290.88 67.26 290.51 66.99C290.14 66.72 289.9 66.33 289.8 65.83L290.27 65.71C290.36 66.11 290.54 66.42 290.82 66.63C291.1 66.84 291.47 66.95 291.93 66.95C292.44 66.95 292.84 66.83 293.15 66.59C293.46 66.35 293.62 66.05 293.62 65.67C293.62 65.38 293.53 65.14 293.35 64.95C293.17 64.76 292.89 64.61 292.52 64.52L291.53 64.28C291.02 64.16 290.64 63.96 290.39 63.68C290.14 63.41 290.01 63.07 290.01 62.67C290.01 62.34 290.1 62.04 290.27 61.79C290.44 61.54 290.68 61.34 290.99 61.2C291.3 61.06 291.65 60.99 292.04 60.99C292.56 60.99 292.99 61.11 293.32 61.36C293.65 61.61 293.89 61.96 294.04 62.42L294.06 62.41Z" fill="#222B57"/>
<path d="M299.93 62.41L299.47 62.53C299.4 62.3 299.29 62.11 299.16 61.94C299.03 61.78 298.86 61.65 298.65 61.56C298.44 61.47 298.2 61.42 297.92 61.42C297.47 61.42 297.09 61.53 296.8 61.76C296.51 61.99 296.37 62.28 296.37 62.64C296.37 62.94 296.47 63.18 296.66 63.37C296.86 63.56 297.16 63.71 297.56 63.81L298.51 64.05C299 64.17 299.37 64.37 299.62 64.64C299.87 64.91 299.99 65.25 299.99 65.65C299.99 65.99 299.9 66.29 299.71 66.56C299.52 66.82 299.27 67.03 298.94 67.18C298.61 67.33 298.23 67.4 297.8 67.4C297.22 67.4 296.75 67.26 296.38 66.99C296.01 66.72 295.77 66.33 295.67 65.83L296.14 65.71C296.23 66.11 296.41 66.42 296.69 66.63C296.97 66.84 297.34 66.95 297.8 66.95C298.31 66.95 298.71 66.83 299.02 66.59C299.33 66.35 299.49 66.05 299.49 65.67C299.49 65.38 299.4 65.14 299.22 64.95C299.04 64.76 298.76 64.61 298.39 64.52L297.4 64.28C296.89 64.16 296.51 63.96 296.26 63.68C296.01 63.41 295.88 63.07 295.88 62.67C295.88 62.34 295.97 62.04 296.14 61.79C296.31 61.54 296.55 61.34 296.86 61.2C297.17 61.06 297.52 60.99 297.91 60.99C298.43 60.99 298.86 61.11 299.19 61.36C299.52 61.61 299.76 61.96 299.91 62.42L299.93 62.41Z" fill="#222B57"/>
<path d="M104.32 11.23H99.78C99.7 10.64 99.53 10.12 99.27 9.66C99.01 9.2 98.69 8.81 98.28 8.48C97.88 8.15 97.42 7.91 96.89 7.73C96.37 7.56 95.8 7.47 95.19 7.47C94.09 7.47 93.13 7.74 92.32 8.28C91.5 8.82 90.87 9.61 90.42 10.64C89.97 11.67 89.75 12.93 89.75 14.4C89.75 15.87 89.98 17.19 90.43 18.22C90.88 19.25 91.52 20.03 92.33 20.55C93.15 21.07 94.09 21.34 95.16 21.34C95.76 21.34 96.32 21.26 96.84 21.1C97.36 20.94 97.81 20.71 98.22 20.4C98.62 20.09 98.95 19.72 99.22 19.27C99.49 18.82 99.67 18.32 99.78 17.76L104.32 17.78C104.2 18.76 103.91 19.69 103.44 20.6C102.97 21.5 102.35 22.31 101.56 23.02C100.78 23.73 99.84 24.29 98.76 24.7C97.68 25.11 96.46 25.32 95.09 25.32C93.19 25.32 91.5 24.89 90.01 24.03C88.52 23.17 87.34 21.93 86.48 20.31C85.62 18.68 85.19 16.72 85.19 14.41C85.19 12.1 85.63 10.12 86.5 8.5C87.37 6.88 88.55 5.64 90.05 4.78C91.54 3.93 93.23 3.5 95.09 3.5C96.32 3.5 97.46 3.67 98.52 4.02C99.57 4.37 100.51 4.87 101.33 5.53C102.14 6.19 102.81 7 103.33 7.95C103.85 8.9 104.18 10 104.32 11.23Z" fill="#222B57"/>
<path d="M110.82 25.0401H106.01L113.34 3.80005H119.13L126.45 25.0401H121.64L116.32 8.65005H116.15L110.82 25.0401ZM110.52 16.69H121.89V20.2001H110.52V16.69Z" fill="#222B57"/>
<path d="M136.53 25.04H129V3.79004H136.59C138.73 3.79004 140.57 4.21004 142.11 5.06004C143.65 5.91004 144.84 7.12004 145.67 8.71004C146.5 10.29 146.92 12.19 146.92 14.39C146.92 16.59 146.5 18.5 145.67 20.09C144.84 21.68 143.64 22.9 142.09 23.75C140.54 24.6 138.68 25.03 136.53 25.03V25.04ZM133.49 21.19H136.34C137.67 21.19 138.79 20.95 139.69 20.48C140.6 20.01 141.28 19.27 141.74 18.27C142.2 17.27 142.43 15.98 142.43 14.4C142.43 12.82 142.2 11.55 141.74 10.55C141.28 9.55004 140.6 8.82004 139.69 8.35004C138.78 7.88004 137.67 7.64004 136.34 7.64004H133.48V21.19H133.49Z" fill="#222B57"/>
<path d="M157.77 25.04H150.24V3.79004H157.83C159.97 3.79004 161.81 4.21004 163.35 5.06004C164.89 5.91004 166.08 7.12004 166.91 8.71004C167.74 10.29 168.16 12.19 168.16 14.39C168.16 16.59 167.74 18.5 166.91 20.09C166.08 21.68 164.88 22.9 163.33 23.75C161.78 24.6 159.92 25.03 157.77 25.03V25.04ZM154.73 21.19H157.58C158.91 21.19 160.03 20.95 160.93 20.48C161.84 20.01 162.52 19.27 162.98 18.27C163.44 17.27 163.67 15.98 163.67 14.4C163.67 12.82 163.44 11.55 162.98 10.55C162.52 9.55004 161.84 8.82004 160.93 8.35004C160.02 7.88004 158.91 7.64004 157.58 7.64004H154.72V21.19H154.73Z" fill="#222B57"/>
<path d="M85.58 31.38H91.12L96.97 45.65H97.22L103.07 31.38H108.61V52.62H104.25V38.79H104.07L98.57 52.51H95.6L90.1 38.73H89.92V52.61H85.56V31.37L85.58 31.38Z" fill="#222B57"/>
<path d="M115.96 52.62H111.15L118.48 31.38H124.27L131.59 52.62H126.78L121.46 36.23H121.29L115.96 52.62ZM115.66 44.27H127.03V47.78H115.66V44.27Z" fill="#222B57"/>
<path d="M151.91 31.38V52.62H148.03L138.79 39.25H138.63V52.62H134.14V31.38H138.08L147.25 44.74H147.44V31.38H151.91Z" fill="#222B57"/>
<path d="M174.36 38.82H169.82C169.74 38.23 169.57 37.71 169.31 37.25C169.05 36.79 168.73 36.4 168.32 36.07C167.92 35.74 167.46 35.5 166.93 35.32C166.41 35.15 165.84 35.06 165.23 35.06C164.13 35.06 163.17 35.33 162.36 35.87C161.54 36.41 160.91 37.2 160.46 38.23C160.01 39.26 159.79 40.52 159.79 41.99C159.79 43.46 160.02 44.78 160.47 45.81C160.92 46.84 161.56 47.62 162.37 48.14C163.19 48.66 164.13 48.93 165.2 48.93C165.8 48.93 166.36 48.85 166.88 48.69C167.4 48.53 167.85 48.3 168.26 47.99C168.66 47.68 168.99 47.31 169.26 46.86C169.53 46.41 169.71 45.91 169.82 45.35L174.36 45.37C174.24 46.35 173.95 47.28 173.48 48.19C173.01 49.09 172.39 49.9 171.6 50.61C170.82 51.32 169.88 51.88 168.8 52.29C167.72 52.7 166.5 52.91 165.13 52.91C163.23 52.91 161.54 52.48 160.05 51.62C158.56 50.76 157.38 49.52 156.52 47.9C155.66 46.27 155.23 44.31 155.23 42C155.23 39.69 155.67 37.71 156.54 36.09C157.41 34.47 158.59 33.23 160.09 32.37C161.58 31.52 163.27 31.09 165.13 31.09C166.36 31.09 167.5 31.26 168.56 31.61C169.61 31.96 170.55 32.46 171.37 33.12C172.18 33.78 172.85 34.59 173.37 35.54C173.89 36.49 174.22 37.59 174.36 38.82Z" fill="#222B57"/>
<path d="M177.59 52.62V31.38H182.08V40.14H191.2V31.38H195.68V52.62H191.2V43.84H182.08V52.62H177.59Z" fill="#222B57"/>
<path d="M199.38 52.62V31.38H213.7V35.08H203.88V40.14H212.97V43.84H203.88V48.91H213.74V52.61H199.38V52.62Z" fill="#222B57"/>
<path d="M228.8 37.49C228.72 36.65 228.36 36 227.73 35.54C227.1 35.08 226.25 34.84 225.17 34.84C224.44 34.84 223.82 34.94 223.31 35.15C222.81 35.35 222.42 35.64 222.15 36C221.88 36.36 221.75 36.77 221.75 37.22C221.74 37.6 221.82 37.93 221.99 38.22C222.17 38.5 222.41 38.75 222.72 38.95C223.03 39.15 223.39 39.33 223.8 39.48C224.21 39.63 224.64 39.76 225.11 39.86L227.02 40.32C227.95 40.53 228.8 40.8 229.57 41.15C230.34 41.5 231.02 41.92 231.58 42.43C232.14 42.94 232.59 43.53 232.9 44.21C233.21 44.89 233.38 45.68 233.38 46.56C233.38 47.86 233.04 48.99 232.39 49.94C231.74 50.89 230.8 51.63 229.57 52.15C228.34 52.67 226.86 52.93 225.14 52.93C223.42 52.93 221.93 52.67 220.66 52.14C219.39 51.61 218.4 50.83 217.69 49.8C216.98 48.77 216.61 47.49 216.57 45.96H220.92C220.97 46.67 221.17 47.27 221.54 47.74C221.91 48.21 222.39 48.57 223 48.81C223.61 49.05 224.3 49.17 225.08 49.17C225.86 49.17 226.5 49.06 227.07 48.84C227.63 48.62 228.07 48.31 228.38 47.92C228.69 47.53 228.85 47.07 228.85 46.56C228.85 46.08 228.71 45.68 228.43 45.36C228.15 45.03 227.74 44.76 227.21 44.53C226.67 44.3 226.02 44.09 225.24 43.91L222.93 43.33C221.14 42.89 219.72 42.21 218.69 41.29C217.65 40.36 217.14 39.12 217.14 37.55C217.14 36.26 217.48 35.14 218.17 34.18C218.87 33.22 219.82 32.47 221.04 31.93C222.26 31.39 223.64 31.12 225.19 31.12C226.74 31.12 228.14 31.39 229.32 31.93C230.5 32.47 231.42 33.22 232.07 34.18C232.73 35.14 233.07 36.25 233.09 37.52H228.79L228.8 37.49Z" fill="#222B57"/>
<path d="M235.59 35.08V31.38H253.04V35.08H246.54V52.62H242.1V35.08H235.6H235.59Z" fill="#222B57"/>
<path d="M255.92 52.62V31.38H270.24V35.08H260.42V40.14H269.51V43.84H260.42V48.91H270.28V52.61H255.92V52.62Z" fill="#222B57"/>
<path d="M273.81 52.62V31.38H282.19C283.79 31.38 285.17 31.67 286.3 32.24C287.44 32.81 288.31 33.62 288.9 34.66C289.5 35.7 289.8 36.92 289.8 38.33C289.8 39.74 289.5 40.95 288.89 41.97C288.28 42.98 287.4 43.76 286.25 44.3C285.1 44.84 283.71 45.11 282.08 45.11H276.47V41.5H281.35C282.21 41.5 282.92 41.38 283.49 41.15C284.06 40.92 284.48 40.56 284.76 40.09C285.04 39.62 285.18 39.04 285.18 38.34C285.18 37.64 285.04 37.04 284.76 36.56C284.48 36.08 284.06 35.71 283.48 35.46C282.9 35.21 282.19 35.08 281.33 35.08H278.3V52.65H273.81V52.62ZM285.29 42.96L290.57 52.63H285.61L280.44 42.96H285.28H285.29Z" fill="#222B57"/>
</g>
<defs>
<clipPath id="clip0_15_14">
<rect width="300" height="70.53" fill="white"/>
</clipPath>
</defs>
</svg>
