<svg width="60" height="53" viewBox="0 0 60 53" fill="none" xmlns="http://www.w3.org/2000/svg">
<g clip-path="url(#clip0_10_10)">
<path d="M10.035 2.53H1.05499V52.53H10.035V2.53Z" fill="#BDB9B9" stroke="#939393" stroke-width="0.23" stroke-linecap="round" stroke-linejoin="round"/>
<path d="M5.54499 50.96C6.3679 50.96 7.03499 50.2929 7.03499 49.47C7.03499 48.6471 6.3679 47.98 5.54499 47.98C4.72209 47.98 4.05499 48.6471 4.05499 49.47C4.05499 50.2929 4.72209 50.96 5.54499 50.96Z" fill="white" stroke="#939393" stroke-width="0.23" stroke-linecap="round" stroke-linejoin="round"/>
<path d="M10.035 8.32H1.05499V11.41H10.035V8.32Z" fill="white" stroke="#939393" stroke-width="0.23" stroke-linecap="round" stroke-linejoin="round"/>
<path d="M10.035 43.65H1.05499V46.74H10.035V43.65Z" fill="white" stroke="#939393" stroke-width="0.23" stroke-linecap="round" stroke-linejoin="round"/>
<path d="M7.345 32.3482H3.61409V31.0438C3.61409 30.7839 3.65903 30.5696 3.7489 30.4008C3.83756 30.232 3.95718 30.1063 4.10778 30.0237C4.25716 29.9411 4.42294 29.8998 4.60511 29.8998C4.76543 29.8998 4.89781 29.9283 5.00225 29.9854C5.1067 30.0413 5.18928 30.1154 5.25001 30.2077C5.31073 30.2988 5.35567 30.3977 5.38482 30.5046H5.42125C5.42854 30.3905 5.46862 30.2757 5.54149 30.1603C5.61435 30.0449 5.7188 29.9484 5.85482 29.8707C5.99085 29.7929 6.15723 29.7541 6.35398 29.7541C6.54101 29.7541 6.70922 29.7966 6.8586 29.8816C7.00798 29.9666 7.12639 30.1008 7.21384 30.2842C7.30128 30.4676 7.345 30.7062 7.345 31.0001V32.3482ZM6.94422 31.8964V31.0001C6.94422 30.705 6.88714 30.4955 6.77298 30.3716C6.6576 30.2465 6.51793 30.184 6.35398 30.184C6.22767 30.184 6.11108 30.2162 6.00421 30.2805C5.89612 30.3449 5.80989 30.4366 5.74552 30.5556C5.67994 30.6746 5.64715 30.8155 5.64715 30.9783V31.8964H6.94422ZM5.25365 31.8964V31.0584C5.25365 30.9224 5.22693 30.7997 5.1735 30.6904C5.12006 30.5799 5.04476 30.4925 4.9476 30.4281C4.85044 30.3625 4.73628 30.3297 4.60511 30.3297C4.44116 30.3297 4.3021 30.3868 4.18794 30.501C4.07256 30.6151 4.01487 30.7961 4.01487 31.0438V31.8964H5.25365ZM4.78 26.0095V26.4613C4.65005 26.488 4.53589 26.5348 4.43752 26.6016C4.33914 26.6671 4.25656 26.7473 4.18976 26.842C4.12175 26.9355 4.07074 27.0394 4.03673 27.1535C4.00273 27.2677 3.98573 27.3867 3.98573 27.5106C3.98573 27.7365 4.04281 27.9411 4.15697 28.1245C4.27113 28.3067 4.43934 28.4518 4.66159 28.5599C4.88384 28.6668 5.15649 28.7202 5.47955 28.7202C5.8026 28.7202 6.07525 28.6668 6.2975 28.5599C6.51976 28.4518 6.68796 28.3067 6.80212 28.1245C6.91629 27.9411 6.97337 27.7365 6.97337 27.5106C6.97337 27.3867 6.95636 27.2677 6.92236 27.1535C6.88835 27.0394 6.83795 26.9355 6.77116 26.842C6.70314 26.7473 6.61995 26.6671 6.52158 26.6016C6.42199 26.5348 6.30783 26.488 6.17909 26.4613V26.0095C6.36977 26.0435 6.5404 26.1054 6.691 26.1953C6.8416 26.2852 6.96972 26.3969 7.07538 26.5305C7.17983 26.6641 7.25938 26.8141 7.31403 26.9805C7.36868 27.1456 7.39601 27.3224 7.39601 27.5106C7.39601 27.8288 7.31828 28.1118 7.16283 28.3595C7.00737 28.6073 6.78634 28.8022 6.49972 28.9443C6.2131 29.0864 5.87304 29.1574 5.47955 29.1574C5.08605 29.1574 4.746 29.0864 4.45938 28.9443C4.17276 28.8022 3.95172 28.6073 3.79627 28.3595C3.64081 28.1118 3.56308 27.8288 3.56308 27.5106C3.56308 27.3224 3.59041 27.1456 3.64506 26.9805C3.69971 26.8141 3.77987 26.6641 3.88553 26.5305C3.98998 26.3969 4.1175 26.2852 4.26809 26.1953C4.41748 26.1054 4.58811 26.0435 4.78 26.0095ZM7.345 25.1264L7.345 25.6001L3.61409 24.2301V23.7637L7.345 22.3938V22.8675L4.20433 23.9824V24.0115L7.345 25.1264ZM5.88761 24.9515V23.0423H6.2884V24.9515H5.88761Z" fill="black"/>
<path d="M16.595 8.83H10.025V52.53H16.595V8.83Z" fill="#BAB6AB" stroke="#939393" stroke-width="0.23" stroke-linecap="round" stroke-linejoin="round"/>
<path d="M16.595 14.95H10.025V16.87H16.595V14.95Z" fill="white" stroke="#939393" stroke-width="0.23" stroke-linecap="round" stroke-linejoin="round"/>
<path d="M10.025 42.26C10.025 42.26 11.035 40.2 13.315 40.2C15.595 40.2 16.605 42.26 16.605 42.26" stroke="#939393" stroke-width="0.23" stroke-linecap="round" stroke-linejoin="round"/>
<path d="M14.945 36.8813H12.065V35.8744C12.065 35.6738 12.0997 35.5083 12.1691 35.378C12.2375 35.2477 12.3299 35.1506 12.4461 35.0869C12.5614 35.0231 12.6894 34.9913 12.83 34.9913C12.9538 34.9913 13.0559 35.0133 13.1366 35.0573C13.2172 35.1005 13.2809 35.1577 13.3278 35.2289C13.3747 35.2992 13.4094 35.3756 13.4319 35.4581H13.46C13.4656 35.37 13.4966 35.2814 13.5528 35.1923C13.6091 35.1033 13.6897 35.0288 13.7947 34.9688C13.8997 34.9088 14.0281 34.8788 14.18 34.8788C14.3244 34.8788 14.4542 34.9116 14.5695 34.9772C14.6849 35.0428 14.7763 35.1464 14.8438 35.288C14.9113 35.4295 14.945 35.6138 14.945 35.8406V36.8813ZM14.6356 36.5325V35.8406C14.6356 35.6128 14.5916 35.4511 14.5034 35.3555C14.4144 35.2589 14.3066 35.2106 14.18 35.2106C14.0825 35.2106 13.9925 35.2355 13.91 35.2852C13.8266 35.3348 13.76 35.4056 13.7103 35.4975C13.6597 35.5894 13.6344 35.6981 13.6344 35.8238V36.5325H14.6356ZM13.3306 36.5325V35.8856C13.3306 35.7806 13.31 35.6859 13.2688 35.6016C13.2275 35.5163 13.1694 35.4488 13.0944 35.3991C13.0194 35.3484 12.9313 35.3231 12.83 35.3231C12.7034 35.3231 12.5961 35.3672 12.508 35.4553C12.4189 35.5434 12.3744 35.6831 12.3744 35.8744V36.5325H13.3306ZM14.9675 34.1088C14.9675 34.1782 14.9427 34.2377 14.893 34.2874C14.8433 34.3371 14.7838 34.362 14.7144 34.362C14.645 34.362 14.5855 34.3371 14.5358 34.2874C14.4861 34.2377 14.4613 34.1782 14.4613 34.1088C14.4613 34.0395 14.4861 33.9799 14.5358 33.9302C14.5855 33.8806 14.645 33.8557 14.7144 33.8557C14.7603 33.8557 14.8025 33.8674 14.8409 33.8909C14.8794 33.9134 14.9103 33.9438 14.9338 33.9823C14.9563 34.0198 14.9675 34.062 14.9675 34.1088ZM12.965 30.8977V31.2464C12.8647 31.267 12.7766 31.3031 12.7006 31.3547C12.6247 31.4053 12.5609 31.4672 12.5094 31.5403C12.4569 31.6125 12.4175 31.6927 12.3913 31.7808C12.365 31.8689 12.3519 31.9608 12.3519 32.0564C12.3519 32.2308 12.3959 32.3888 12.4841 32.5303C12.5722 32.6709 12.702 32.783 12.8736 32.8664C13.0452 32.9489 13.2556 32.9902 13.505 32.9902C13.7544 32.9902 13.9649 32.9489 14.1364 32.8664C14.308 32.783 14.4378 32.6709 14.5259 32.5303C14.6141 32.3888 14.6581 32.2308 14.6581 32.0564C14.6581 31.9608 14.645 31.8689 14.6188 31.7808C14.5925 31.6927 14.5536 31.6125 14.502 31.5403C14.4495 31.4672 14.3853 31.4053 14.3094 31.3547C14.2325 31.3031 14.1444 31.267 14.045 31.2464V30.8977C14.1922 30.9239 14.3239 30.9717 14.4402 31.0411C14.5564 31.1105 14.6553 31.1967 14.7369 31.2998C14.8175 31.403 14.8789 31.5188 14.9211 31.6472C14.9633 31.7747 14.9844 31.9111 14.9844 32.0564C14.9844 32.302 14.9244 32.5205 14.8044 32.7117C14.6844 32.903 14.5138 33.0534 14.2925 33.1631C14.0713 33.2728 13.8088 33.3277 13.505 33.3277C13.2013 33.3277 12.9388 33.2728 12.7175 33.1631C12.4963 33.0534 12.3256 32.903 12.2056 32.7117C12.0856 32.5205 12.0256 32.302 12.0256 32.0564C12.0256 31.9111 12.0467 31.7747 12.0889 31.6472C12.1311 31.5188 12.193 31.403 12.2745 31.2998C12.3552 31.1967 12.4536 31.1105 12.5699 31.0411C12.6852 30.9717 12.8169 30.9239 12.965 30.8977ZM13.505 27.9041C13.8088 27.9041 14.0713 27.9589 14.2925 28.0686C14.5138 28.1783 14.6844 28.3288 14.8044 28.52C14.9244 28.7113 14.9844 28.9297 14.9844 29.1754C14.9844 29.421 14.9244 29.6394 14.8044 29.8307C14.6844 30.0219 14.5138 30.1724 14.2925 30.2821C14.0713 30.3918 13.8088 30.4466 13.505 30.4466C13.2013 30.4466 12.9388 30.3918 12.7175 30.2821C12.4963 30.1724 12.3256 30.0219 12.2056 29.8307C12.0856 29.6394 12.0256 29.421 12.0256 29.1754C12.0256 28.9297 12.0856 28.7113 12.2056 28.52C12.3256 28.3288 12.4963 28.1783 12.7175 28.0686C12.9388 27.9589 13.2013 27.9041 13.505 27.9041ZM13.505 28.2416C13.2556 28.2416 13.0452 28.2833 12.8736 28.3668C12.702 28.4493 12.5722 28.5613 12.4841 28.7029C12.3959 28.8435 12.3519 29.001 12.3519 29.1754C12.3519 29.3497 12.3959 29.5077 12.4841 29.6493C12.5722 29.7899 12.702 29.9019 12.8736 29.9854C13.0452 30.0679 13.2556 30.1091 13.505 30.1091C13.7544 30.1091 13.9649 30.0679 14.1364 29.9854C14.308 29.9019 14.4378 29.7899 14.5259 29.6493C14.6141 29.5077 14.6581 29.3497 14.6581 29.1754C14.6581 29.001 14.6141 28.8435 14.5259 28.7029C14.4378 28.5613 14.308 28.4493 14.1364 28.3668C13.9649 28.2833 13.7544 28.2416 13.505 28.2416ZM12.065 27.3177V26.9014L14.4556 25.9227V25.8889L12.065 24.9102V24.4939H14.945V24.8202H12.7569V24.8483L14.945 25.7483V26.0633L12.7569 26.9633V26.9914H14.945V27.3177H12.065Z" fill="black"/>
<path d="M24.795 14.38H16.605V52.53H24.795V14.38Z" fill="#C4C4A8" stroke="#939393" stroke-width="0.23" stroke-linecap="round" stroke-linejoin="round"/>
<path d="M24.795 48.43H16.605V50.01H24.795V48.43Z" fill="white" stroke="#939393" stroke-width="0.23" stroke-linecap="round" stroke-linejoin="round"/>
<path d="M16.605 19.13H24.795" stroke="#939393" stroke-width="0.23" stroke-linecap="round" stroke-linejoin="round"/>
<path d="M21.815 35.7413H18.935V34.7344C18.935 34.5338 18.9697 34.3683 19.0391 34.238C19.1075 34.1077 19.1998 34.0106 19.3161 33.9469C19.4314 33.8831 19.5594 33.8513 19.7 33.8513C19.8238 33.8513 19.9259 33.8733 20.0066 33.9173C20.0872 33.9605 20.1509 34.0177 20.1978 34.0889C20.2447 34.1592 20.2794 34.2356 20.3019 34.3181H20.33C20.3356 34.23 20.3666 34.1414 20.4228 34.0523C20.4791 33.9633 20.5597 33.8887 20.6647 33.8288C20.7697 33.7688 20.8981 33.7388 21.05 33.7388C21.1944 33.7388 21.3242 33.7716 21.4395 33.8372C21.5548 33.9028 21.6463 34.0064 21.7138 34.148C21.7813 34.2895 21.815 34.4738 21.815 34.7006V35.7413ZM21.5056 35.3925V34.7006C21.5056 34.4728 21.4616 34.3111 21.3734 34.2155C21.2844 34.1189 21.1766 34.0706 21.05 34.0706C20.9525 34.0706 20.8625 34.0955 20.78 34.1452C20.6966 34.1948 20.63 34.2656 20.5803 34.3575C20.5297 34.4494 20.5044 34.5581 20.5044 34.6838V35.3925H21.5056ZM20.2006 35.3925V34.7456C20.2006 34.6406 20.18 34.5459 20.1388 34.4616C20.0975 34.3763 20.0394 34.3088 19.9644 34.2591C19.8894 34.2084 19.8013 34.1831 19.7 34.1831C19.5734 34.1831 19.4661 34.2272 19.378 34.3153C19.2889 34.4034 19.2444 34.5431 19.2444 34.7344V35.3925H20.2006ZM21.815 33.0476V33.4132L18.935 32.3557V31.9957L21.815 30.9382V31.3038L19.3906 32.1645V32.187L21.815 33.0476ZM20.69 32.9126V31.4388H20.9994V32.9126H20.69Z" fill="black"/>
<path d="M36.715 0.120001H24.795V52.53H36.715V0.120001Z" fill="#BFB5B9" stroke="#939393" stroke-width="0.23" stroke-linecap="round" stroke-linejoin="round"/>
<path d="M36.715 45.21H24.795V47.13H36.715V45.21Z" fill="white" stroke="#939393" stroke-width="0.23" stroke-linecap="round" stroke-linejoin="round"/>
<path d="M36.715 3.29H24.795V4.32H36.715V3.29Z" fill="white" stroke="#939393" stroke-width="0.23" stroke-linecap="round" stroke-linejoin="round"/>
<path d="M28.315 42.85C28.145 42.26 28.685 41.93 29.045 41.93C29.665 41.93 30.055 42.43 30.055 43.06C30.055 43.69 29.555 44.19 28.925 44.19H24.795" stroke="#939393" stroke-width="0.23" stroke-linecap="round" stroke-linejoin="round"/>
<path d="M33.195 42.85C33.365 42.26 32.825 41.93 32.465 41.93C31.845 41.93 31.455 42.43 31.455 43.06C31.455 43.68 31.955 44.19 32.585 44.19H36.715" stroke="#939393" stroke-width="0.23" stroke-linecap="round" stroke-linejoin="round"/>
<path d="M28.315 7.4C28.145 7.99 28.685 8.32 29.045 8.32C29.665 8.32 30.055 7.82 30.055 7.19C30.055 6.56 29.555 6.06 28.925 6.06H24.795" stroke="#939393" stroke-width="0.23" stroke-linecap="round" stroke-linejoin="round"/>
<path d="M33.195 7.4C33.365 7.99 32.825 8.32 32.465 8.32C31.845 8.32 31.455 7.82 31.455 7.19C31.455 6.57 31.955 6.06 32.585 6.06H36.715" stroke="#939393" stroke-width="0.23" stroke-linecap="round" stroke-linejoin="round"/>
<path d="M28.2841 29.8882V29.349L31.381 28.0811V28.0373L28.2841 26.7694V26.2302H32.015V26.6528H29.1804V26.6892L32.015 27.8552V28.2632L29.1804 29.4291V29.4656H32.015V29.8882H28.2841ZM32.015 25.1713V25.6449L28.2841 24.275V23.8086L32.015 22.4387V22.9123L28.8743 24.0272V24.0564L32.015 25.1713ZM30.5576 24.9964V23.0872H30.9584V24.9964H30.5576Z" fill="black"/>
<path d="M46.615 9.64H36.715V52.53H46.615V9.64Z" fill="#B4BFCF" stroke="#939393" stroke-width="0.23" stroke-linecap="round" stroke-linejoin="round"/>
<path d="M36.715 48.43H46.615" stroke="#939393" stroke-width="0.23" stroke-linecap="round" stroke-linejoin="round"/>
<path d="M36.715 13.78C36.715 13.78 38.715 15.63 41.665 15.63C44.615 15.63 46.615 13.78 46.615 13.78V16.87C46.615 16.87 44.615 18.72 41.665 18.72C38.715 18.72 36.715 16.87 36.715 16.87V13.78Z" fill="white" stroke="#939393" stroke-width="0.23" stroke-linecap="round" stroke-linejoin="round"/>
<path d="M42.785 34.6612H39.905V33.6544C39.905 33.4537 39.9397 33.2883 40.0091 33.158C40.0775 33.0277 40.1698 32.9306 40.2861 32.8669C40.4014 32.8031 40.5294 32.7712 40.67 32.7712C40.7938 32.7712 40.8959 32.7933 40.9766 32.8373C41.0572 32.8805 41.1209 32.9377 41.1678 33.0089C41.2147 33.0792 41.2494 33.1556 41.2719 33.2381H41.3C41.3056 33.15 41.3366 33.0614 41.3928 32.9723C41.4491 32.8833 41.5297 32.8087 41.6347 32.7487C41.7397 32.6887 41.8681 32.6587 42.02 32.6587C42.1644 32.6587 42.2942 32.6916 42.4095 32.7572C42.5248 32.8228 42.6163 32.9264 42.6838 33.068C42.7513 33.2095 42.785 33.3937 42.785 33.6206V34.6612ZM42.4756 34.3125V33.6206C42.4756 33.3928 42.4316 33.2311 42.3434 33.1355C42.2544 33.0389 42.1466 32.9906 42.02 32.9906C41.9225 32.9906 41.8325 33.0155 41.75 33.0652C41.6666 33.1148 41.6 33.1856 41.5503 33.2775C41.4997 33.3694 41.4744 33.4781 41.4744 33.6037V34.3125H42.4756ZM41.1706 34.3125V33.6656C41.1706 33.5606 41.15 33.4659 41.1088 33.3816C41.0675 33.2962 41.0094 33.2287 40.9344 33.1791C40.8594 33.1284 40.7713 33.1031 40.67 33.1031C40.5434 33.1031 40.4361 33.1472 40.348 33.2353C40.2589 33.3234 40.2144 33.4631 40.2144 33.6544V34.3125H41.1706ZM42.785 32.0857H39.905V31.0788C39.905 30.8782 39.9397 30.7127 40.0091 30.5824C40.0775 30.4521 40.1698 30.3551 40.2861 30.2913C40.4014 30.2276 40.5294 30.1957 40.67 30.1957C40.7938 30.1957 40.8959 30.2177 40.9766 30.2618C41.0572 30.3049 41.1209 30.3621 41.1678 30.4334C41.2147 30.5037 41.2494 30.5801 41.2719 30.6626H41.3C41.3056 30.5745 41.3366 30.4859 41.3928 30.3968C41.4491 30.3077 41.5297 30.2332 41.6347 30.1732C41.7397 30.1132 41.8681 30.0832 42.02 30.0832C42.1644 30.0832 42.2942 30.116 42.4095 30.1816C42.5248 30.2473 42.6163 30.3509 42.6838 30.4924C42.7513 30.634 42.785 30.8182 42.785 31.0451V32.0857ZM42.4756 31.737V31.0451C42.4756 30.8173 42.4316 30.6555 42.3434 30.5599C42.2544 30.4634 42.1466 30.4151 42.02 30.4151C41.9225 30.4151 41.8325 30.4399 41.75 30.4896C41.6666 30.5393 41.6 30.6101 41.5503 30.702C41.4997 30.7938 41.4744 30.9026 41.4744 31.0282V31.737H42.4756ZM41.1706 31.737V31.0901C41.1706 30.9851 41.15 30.8904 41.1088 30.806C41.0675 30.7207 41.0094 30.6532 40.9344 30.6035C40.8594 30.5529 40.7713 30.5276 40.67 30.5276C40.5434 30.5276 40.4361 30.5716 40.348 30.6598C40.2589 30.7479 40.2144 30.8876 40.2144 31.0788V31.737H41.1706ZM42.785 29.392V29.7577L39.905 28.7002V28.3402L42.785 27.2827V27.6483L40.3606 28.5089V28.5314L42.785 29.392ZM41.66 29.257V27.7833H41.9694V29.257H41.66Z" fill="black"/>
<path d="M58.945 2.53H46.615V52.53H58.945V2.53Z" fill="#A3B4CD" stroke="#939393" stroke-width="0.23" stroke-linecap="round" stroke-linejoin="round"/>
<path d="M58.945 41.64H46.615V44.93H58.945V41.64Z" fill="white" stroke="#939393" stroke-width="0.23" stroke-linecap="round" stroke-linejoin="round"/>
<path d="M46.615 11.17H58.945" stroke="#939393" stroke-width="0.23" stroke-linecap="round" stroke-linejoin="round"/>
<path d="M52.775 9.53C54.2164 9.53 55.385 8.36146 55.385 6.92C55.385 5.47854 54.2164 4.31 52.775 4.31C51.3335 4.31 50.165 5.47854 50.165 6.92C50.165 8.36146 51.3335 9.53 52.775 9.53Z" fill="white" stroke="#939393" stroke-width="0.23" stroke-linecap="round" stroke-linejoin="round"/>
<path d="M51.1259 37.8877H54.515V38.2981H51.5561V38.318L52.1056 39.1454H51.6885L51.1259 38.2981V37.8877ZM54.5679 35.8738C54.5679 36.1032 54.5133 36.3046 54.4041 36.4778C54.2949 36.6499 54.1421 36.7845 53.9457 36.8816C53.7493 36.9775 53.5199 37.0255 53.2573 37.0255C52.9925 37.0255 52.7614 36.9775 52.5639 36.8816C52.3665 36.7845 52.2131 36.6499 52.1039 36.4778C51.9947 36.3046 51.9401 36.1032 51.9401 35.8738C51.9401 35.6443 51.9947 35.4435 52.1039 35.2714C52.2131 35.0982 52.3665 34.9636 52.5639 34.8676C52.7614 34.7706 52.9925 34.722 53.2573 34.722C53.5199 34.722 53.7493 34.7706 53.9457 34.8676C54.1421 34.9636 54.2949 35.0982 54.4041 35.2714C54.5133 35.4435 54.5679 35.6443 54.5679 35.8738ZM54.2171 35.8738C54.2171 35.6995 54.1724 35.556 54.0831 35.4435C53.9937 35.331 53.8762 35.2477 53.7306 35.1936C53.585 35.1396 53.4272 35.1126 53.2573 35.1126C53.0874 35.1126 52.9291 35.1396 52.7824 35.1936C52.6356 35.2477 52.5171 35.331 52.4266 35.4435C52.3361 35.556 52.2909 35.6995 52.2909 35.8738C52.2909 36.0481 52.3361 36.1915 52.4266 36.304C52.5171 36.4166 52.6356 36.4998 52.7824 36.5539C52.9291 36.608 53.0874 36.635 53.2573 36.635C53.4272 36.635 53.585 36.608 53.7306 36.5539C53.8762 36.4998 53.9937 36.4166 54.0831 36.304C54.1724 36.1915 54.2171 36.0481 54.2171 35.8738ZM54.0516 33.5434L54.2304 33.5698C54.3561 33.5886 54.4907 33.6173 54.6341 33.6559C54.7776 33.6934 54.9127 33.7326 55.0396 33.7734C55.1664 33.8142 55.2674 33.8478 55.3424 33.8743V34.1722C55.2718 34.1579 55.1786 34.1391 55.0627 34.1159C54.9469 34.0928 54.8173 34.0696 54.6738 34.0464C54.5315 34.0222 54.3859 34.0023 54.237 33.9869L54.0516 33.967V33.5434ZM51.1259 30.3243H54.515V30.7347H51.5561V30.7546L52.1056 31.582H51.6885L51.1259 30.7347V30.3243ZM51.1259 28.1581H54.515V28.5685H51.5561V28.5884L52.1056 29.4158H51.6885L51.1259 28.5685V28.1581ZM54.0516 26.7946L54.2304 26.821C54.3561 26.8398 54.4907 26.8685 54.6341 26.9071C54.7776 26.9446 54.9127 26.9838 55.0396 27.0246C55.1664 27.0654 55.2674 27.099 55.3424 27.1255V27.4234C55.2718 27.409 55.1786 27.3903 55.0627 27.3671C54.9469 27.344 54.8173 27.3208 54.6738 27.2976C54.5315 27.2733 54.3859 27.2535 54.237 27.238L54.0516 27.2182V26.7946ZM51.1259 23.5755H54.515V23.9859H51.5561V24.0057L52.1056 24.8332H51.6885L51.1259 23.9859V23.5755ZM54.515 22.6008H54.2171L52.9925 21.4821C52.8491 21.3509 52.7245 21.2427 52.6185 21.1578C52.5115 21.0728 52.4111 21.01 52.3174 20.9691C52.2225 20.9272 52.1232 20.9063 52.0195 20.9063C51.9004 20.9063 51.7972 20.9349 51.71 20.9923C51.6229 21.0486 51.5556 21.1258 51.5082 21.224C51.4607 21.3222 51.437 21.4325 51.437 21.5549C51.437 21.6851 51.464 21.7988 51.5181 21.8958C51.571 21.9918 51.6455 22.0663 51.7415 22.1192C51.8375 22.1711 51.95 22.197 52.0791 22.197V22.5876C51.8805 22.5876 51.7062 22.5418 51.5561 22.4502C51.4061 22.3586 51.2892 22.234 51.2053 22.0762C51.1215 21.9174 51.0796 21.7392 51.0796 21.5417C51.0796 21.3431 51.1215 21.1672 51.2053 21.0138C51.2892 20.8605 51.4022 20.7402 51.5446 20.6531C51.6869 20.5659 51.8452 20.5223 52.0195 20.5223C52.1442 20.5223 52.2661 20.5449 52.3852 20.5902C52.5033 20.6343 52.6351 20.7115 52.7807 20.8219C52.9252 20.9311 53.1018 21.0828 53.3103 21.2769L54.1244 22.0382H54.1509V20.4628H54.515V22.6008ZM51.9732 18.6673H52.3041V19.9845H51.9732V18.6673ZM51.3642 19.6006V19.2101H53.7869C53.8972 19.2101 53.9799 19.1941 54.0351 19.1621C54.0891 19.129 54.1255 19.087 54.1443 19.0363C54.162 18.9844 54.1708 18.9298 54.1708 18.8725C54.1708 18.8294 54.1686 18.7941 54.1642 18.7666C54.1586 18.739 54.1542 18.7169 54.1509 18.7004L54.5017 18.6209C54.5117 18.6474 54.5216 18.6844 54.5315 18.7318C54.5426 18.7792 54.5481 18.8394 54.5481 18.9122C54.5481 19.0225 54.5244 19.1306 54.4769 19.2365C54.4295 19.3413 54.3572 19.4285 54.2601 19.498C54.1631 19.5664 54.0406 19.6006 53.8928 19.6006H51.3642ZM52.9859 17.6347H54.515V18.0252H51.1259V17.6347H52.3703V17.6016C52.239 17.542 52.1348 17.4526 52.0576 17.3335C51.9792 17.2132 51.9401 17.0533 51.9401 16.8536C51.9401 16.6804 51.9748 16.5287 52.0443 16.3985C52.1127 16.2683 52.2181 16.1674 52.3604 16.0957C52.5016 16.0229 52.6814 15.9864 52.8999 15.9864H54.515V16.377H52.9263C52.7245 16.377 52.5684 16.4294 52.458 16.5342C52.3466 16.6379 52.2909 16.7819 52.2909 16.9661C52.2909 17.0941 52.3179 17.2088 52.372 17.3103C52.426 17.4107 52.5049 17.4901 52.6086 17.5486C52.7123 17.606 52.8381 17.6347 52.9859 17.6347Z" fill="black"/>
</g>
<defs>
<clipPath id="clip0_10_10">
<rect width="58.13" height="52.65" fill="white" transform="translate(0.934998)"/>
</clipPath>
</defs>
</svg>
